<?xml version="1.0" encoding="utf-8"?>
<!-- Generator: Adobe Illustrator 28.0.0, SVG Export Plug-In . SVG Version: 6.00 Build 0)  -->
<svg version="1.1" id="Capa_1" xmlns="http://www.w3.org/2000/svg" xmlns:xlink="http://www.w3.org/1999/xlink" x="0px" y="0px"
	 viewBox="0 0 376 120.4" style="enable-background:new 0 0 376 120.4;" xml:space="preserve">
<style type="text/css">
	.st0{fill:#00815B;}
	.st1{fill-rule:evenodd;clip-rule:evenodd;fill:#00815B;}
	.st2{fill:url(#SVGID_1_);}
	.st3{fill:url(#SVGID_00000095325988875466702680000000026018968118425511_);}
	.st4{fill:url(#SVGID_00000008134228558777240460000014459898985269025158_);}
	.st5{fill:url(#SVGID_00000026148620588980527570000011382478447663276692_);}
	.st6{fill:url(#SVGID_00000049929594317586393770000016940597018983923372_);}
	.st7{fill:url(#SVGID_00000031907591230121231850000010733240874267778181_);}
</style>
<g>
	<g>
		<g>
			<g>
				<g>
					<path class="st0" d="M82.2,110.3c-0.3,0.2-1.1,0.3-2,0.3c-2.7,0-4.1-1.7-4.1-3.9c0-2.7,1.9-4.1,4.3-4.1c0.9,0,1.6,0.2,1.9,0.3
						l-0.4,1.4c-0.4-0.2-0.9-0.3-1.5-0.3c-1.4,0-2.5,0.8-2.5,2.6c0,1.6,0.9,2.5,2.5,2.5c0.5,0,1.1-0.1,1.5-0.3L82.2,110.3z"/>
					<path class="st0" d="M113.9,102.7v3h2.9v-3h1.8v7.8h-1.8v-3.3h-2.9v3.3h-1.8v-7.8H113.9z"/>
					<path class="st0" d="M150.6,102.7v7.8h-1.8v-7.8H150.6z"/>
					<path class="st0" d="M180.8,102.7h1.8v6.3h3.1v1.5h-4.9V102.7z"/>
					<path class="st0" d="M220.1,107.2h-2.9v1.8h3.2v1.4h-5v-7.8h4.8v1.4h-3v1.6h2.9V107.2z"/>
				</g>
				<g>
					<path class="st0" d="M167.9,55.3"/>
					<path class="st0" d="M114.5,22.4c-9.9,0-15.4,14.7-15.4,32.9c0,18.2,4,32.9,15.4,32.9c8.5,0,15.4-14.7,15.4-32.9
						C129.9,38.4,128,22.4,114.5,22.4z M114.5,83.3c-5.8,0-10.5-12.1-10.5-28c0-17.3,4.1-28.7,10.5-28.7c7.1,0,10.5,12.9,10.5,28.7
						C125.1,74.7,120.4,83.3,114.5,83.3z"/>
					<path class="st0" d="M99.1,74.3C98.4,84,93,88.2,89.6,88.2c-12,0-15.4-14.9-15.4-33.3c0-18.6,6.8-32.5,15.3-32.5
						c3.6,0,5,1.3,8.5,1c0.2,3.1,0.3,7.9-0.3,12.6c-1.2-5.8-3.2-9-7.8-9c-6.1,0-11,7.9-11,27.1c0,15.3,3.7,27.1,11.1,27.1
						C94.3,81.2,97,79.4,99.1,74.3z"/>
					<path class="st0" d="M144.6,22.7c-7.4,0.1-7.4,0.9-12.7,0.4c0.4,7.9,0.6,16.8,0.6,26.3c0,14.4-0.5,27.5-1.4,37.8
						c0.7-0.1,1.7-0.1,3.2,0c3,0.2,5.1,1,9.9,0.5c9.3-1,15.7-14.8,15.7-32.7C160,37.2,157,22.7,144.6,22.7z M144.6,83.5
						c-9.7,0-7.5,2.7-7.5-28.5V27.9c2.3-1.6,5.9-1.4,7.5-1.1c5.7,1.2,10.5,12.6,10.5,28.2C155.2,70.6,151.9,83.5,144.6,83.5z"/>
					<path class="st0" d="M189.1,51.4c0,0-0.3,2.3,2,2.2c2.4,0,6.7-0.1,9.5-0.7c0,0-0.5,5.4-7,5.5c-4.8,0.1-4.6,1.2-4.6,3.1
						c-0.1,6.7-0.2,12.4-0.1,14.3c0.1,3.7,0.5,7.7,0.9,11.2c-2.3,0.1-4.6,0-6.6,0c0.9-10.2,1.4-23.4,1.4-37.9c0-9.3-0.2-18-0.6-25.8
						c0.9,0.2,3.3,0.6,8,0.2c4.3-0.4,7.5,0.2,9.2,0.6c0.1,1.7,0.1,4.5,0,7.7c-0.8-1.6-2.3-4-4.3-4c-3.1-0.1-6,0-6,0
						s-1.4-0.1-1.4,1.8C189.5,29.7,189.3,40.3,189.1,51.4z"/>
					<path class="st0" d="M169,55.3"/>
					<path class="st0" d="M179.7,86.7c-7.1,0.9-15.8,0.3-18.3,0.1c0.9-10.2,1.4-23.3,1.4-37.5c0-9.3-0.2-18-0.6-25.8
						c0.9,0.2,3.3,0.6,8,0.2c4.3-0.4,7.5,0.2,9.2,0.6c0.1,1.7,0.1,4.5,0,7.7c-0.8-1.6-2.3-4-4.3-4c-3.1-0.1-6.1,0-6.1,0
						s-1.3-0.1-1.3,1.8c0,0-0.2,9.1-0.3,19.3c0,0-0.3,2.2,2.1,2.2c2.4,0,6.7-0.1,9.5-0.7c0,0-0.5,5.4-7,5.5c-4.9,0-4.7,1.2-4.8,3.1
						c-0.1,7.8-0.2,14.6-0.1,16.8c0,0,0,2.1,0,4.7c0,1.9,1,2.2,1.6,2.2c0.6,0,2.3-0.1,3.2,0c0.9,0,2,0,2,0c4.9,0,7.3-5.9,7.3-5.9
						C181.7,84.1,179.7,86.7,179.7,86.7z"/>
					<path class="st0" d="M209.1,51.4c0,0-0.3,2.3,2,2.2c2.4,0,6.7-0.1,9.5-0.7c0,0-0.5,5.4-7,5.5c-4.8,0.1-4.6,1.2-4.6,3.1
						c-0.1,6.7-0.2,12.4-0.1,14.3c0.1,3.7,0.5,7.7,0.9,11.2c-2.3,0.1-4.6,0-6.6,0c0.9-10.2,1.4-23.4,1.4-37.9c0-9.3-0.2-18-0.6-25.8
						c0.9,0.2,3.3,0.6,8,0.2c4.3-0.4,7.5,0.2,9.2,0.6c0.1,1.7,0.1,4.5,0,7.7c-0.8-1.6-2.3-4-4.3-4c-3.1-0.1-6.1,0-6.1,0
						s-1.3-0.1-1.3,1.8C209.5,29.7,209.3,40.3,209.1,51.4z"/>
				</g>
				<path class="st1" d="M220.9,95.2c0,0.5,0,1,0,1.4c-48.5,0-96.7,0-145.2,0c0-0.5,0-1,0-1.4C124.1,95.2,172.4,95.2,220.9,95.2z"/>
			</g>
			<g>
				<path class="st1" d="M47.5,37.4c0.3,1.3,0.6,2.5,0.9,3.6c0.3,1.1,0.6,2.3,1.1,3.3c0.6,1.3,1.7,1.9,3.1,1.9
					c2.9,0.1,4.2-0.6,5-3.7c0.2-1,0.5-1.9,0.7-2.9c0.2-0.6,0.4-1.2,0.6-1.8c0.1,0,0.2,0,0.3,0c0,0.3,0,0.5,0.1,0.8
					c0.3,3.1,0.6,6.2,1,9.2c0.4,3.3,1,6.5,0.8,9.9c-0.3,3.2-1,6.2-3,8.8C57,68,56,69.7,56,71.6c-0.1,2.4-0.1,4.9,0,7.3
					c0.3,6.3,0.6,12.5,0.9,18.8c0.1,2.2,0.4,4.4,0.7,6.5c0.2,1.5,0.9,2.7,1.9,3.8c0.7,0.7,1.2,1.6,1.8,2.4c-0.1,0.1-0.1,0.1-0.2,0.2
					c-1.4,0-2.7,0-4.1,0c-0.2,0-0.5-0.2-0.6-0.4c-0.4-0.4-0.7-0.9-1.2-1.3c-1.1-0.9-1.4-2.1-1.5-3.5c-0.3-3-0.7-6-1.3-8.9
					c-0.8-4.2-1.7-8.4-2.6-12.5c-0.7-3.1-1.6-6.1-3.2-8.9c-1.1-1.8-2.7-2.6-4.7-2.7c-1,0-2,0.1-3,0.1c-4.7,0.1-9.2-1.1-13.7-2.5
					c-0.4-0.1-0.9-0.2-1.2-0.4c-2.5-1.1-4.5-0.4-6.3,1.4c-3.5,3.5-6.9,7.1-10.4,10.7c-0.8,0.9-1,2-0.9,3.1c0.2,3.5,0.4,7,0.7,10.4
					c0.3,3.2,0.8,6.4,1.1,9.6c0.1,1.1,0.7,1.9,1.3,2.7c0.6,0.8,1,1.6,1.7,2.6c-1.6,0-2.8,0-4,0c-0.2,0-0.3-0.1-0.5-0.2
					c-0.6-0.6-1.2-1.2-1.7-1.9c-0.3-0.4-0.5-0.9-0.5-1.3c-0.3-6.1-1.2-12.2-2.4-18.2c-0.6-2.8-1.3-5.6-1.9-8.5
					c-0.3-1.5-0.2-3,0.7-4.4c1.1-1.8,2-3.7,2.9-5.6c1-2.3,0.5-4.7-0.2-6.9c-0.8-2.5-1.7-4.9-2.3-7.4c-0.5-1.7-0.7-3.6-0.9-5.3
					c-0.2-1.4,0.3-2.8,1.2-3.8c3.5-4,7.5-7.4,12.5-9.5c3.2-1.3,6.4-1.1,9.7-0.4c4.2,0.9,8.4,1.8,12.7,2.3c2.7,0.4,5.6,0.3,8.3,0.2
					c0.7,0,1.3-0.6,2-1C46.9,38,47.1,37.7,47.5,37.4z"/>
				<path class="st1" d="M50.5,17.8c0.1-0.4,0.1-0.9,0.2-1.3c0.1-0.3,0.3-0.6,0.5-0.8c0.2,0.2,0.5,0.5,0.6,0.7
					c0.1,0.7,0.2,1.4,0.2,2.1c0,0.6,0.2,0.9,0.9,0.9c1.9,0,1.9,0.1,2-1.9c0-0.3,0-0.7,0.1-1c0.1-0.3,0.4-0.5,0.6-0.8
					c0.2,0.3,0.4,0.5,0.5,0.8c0.1,0.4,0.2,0.8,0.3,1.3c0.1,0,0.3,0,0.4,0c0.1-0.4,0.4-0.9,0.4-1.3c0-1.6-0.1-3.3-0.2-4.9
					c0-0.4,0-0.9,0.1-1.3c0-0.2,0.2-0.4,0.3-0.4c0.2,0,0.5,0.1,0.6,0.3c0.3,0.7,0.6,1.4,0.6,2.1c0.2,2.2,0.3,4.4,0.3,6.6
					c0,1,0.4,1.6,1.8,1.2c1.3-0.4,2.6-1,3.9-1.1c2.1-0.2,4.2-0.1,6.3-0.1c0.8,0,1.3,0.6,1.2,1.5c-0.3,2.7-1.6,4.7-3.7,6.4
					c-2.2,1.8-4.9,1.8-7.6,1.8c-0.9,0-1.8,0-2.7,0.1c-1.5,0.3-2.4,1.2-2.6,2.7c-0.4,2.6-0.7,2.2,1.9,2.3c0.4,0,0.9,0,1.5,0
					C58.2,36,57.6,38,57,40.2c-2.5-1.5-5-1.7-7.6-0.3c-0.5-2.1-1-4.1-1.5-6.3c1,0,2,0,2.9,0c0.6,0,0.9-0.2,0.8-0.8
					c-0.1-0.4-0.1-0.8-0.1-1.2c-0.4-2.2-1.4-3-3.6-3.1c-2.2-0.2-4.4-0.3-6.5-0.7c-3.7-0.7-6.3-4.8-6.2-8.3c0-0.7,0.5-1.2,1.4-1.2
					c1.1,0,2.1,0.1,3.2,0.1c0.8,0,1.5,0,2.3,0.1c0.9,0.1,1.7,0.4,2.6,0.6c0.8,0.2,1.5,0.6,2.3,0.8c1.1,0.3,1.3,0,1.3-1.1
					c0-1.5,0-2.9,0.2-4.4c0.1-1.4,0.4-2.7,0.7-4c0.1-0.3,0.5-0.5,0.8-0.7c0.1,0.3,0.4,0.6,0.4,0.9c-0.1,1.8-0.3,3.5-0.4,5.3
					c0,0.6,0.2,1.2,0.3,1.9C50.2,17.8,50.4,17.8,50.5,17.8z M46,26.3c-0.3-2.2-0.8-4.3-3-5.4c-1.9-0.9-4-0.8-6-0.7
					C37.1,24.8,42,26.9,46,26.3z M69.9,20.7c-1.4,0-2.8-0.1-4.2,0c-2.8,0.3-5,2.9-4.8,5.8C65.7,27.1,69.8,24.5,69.9,20.7z"/>
				<path class="st1" d="M24,71.3c-2.1,3.2-4.1,6.4-6.3,9.4c-1.9,2.6-2.5,5.3-1.6,8.3c1.4,4.7,2.7,9.4,4.2,14c0.4,1.2,1.3,2.2,2,3.3
					c0.3,0.6,0.7,1.1,1.2,1.8c-1.5,0-2.8,0-4.1,0c-0.2,0-0.4-0.4-0.6-0.6c-1.7-1.2-2.1-2.9-2.6-4.8c-0.7-2.9-1.7-5.7-2.7-8.5
					c-1.2-3.3-2.4-6.6-3.7-9.9c-0.6-1.6-0.3-2.8,0.9-4c2.6-2.6,5.2-5.3,7.7-7.9c0.3-0.3,0.6-0.5,0.9-0.7
					C20.8,70.1,22.3,70.3,24,71.3z"/>
				<path class="st1" d="M44.4,108.3c-0.6,0-1,0-1.4,0c-2.9,0-3,0-4.4-2.5c-0.3-0.6-0.5-1.5-0.3-2.1c1.1-2.8,1.5-5.7,2-8.5
					c0.9-5,1.7-10,2.4-15.1c0.3-1.9,0.4-3.9,0.6-5.9c0.8-0.2,1.2,0.3,1.6,0.7c1.7,2.3,2.8,4.9,3.1,7.7c0,0.3,0,0.6-0.1,0.9
					c-1.4,4.4-2.8,8.8-4.1,13.2c-0.6,1.8-0.9,3.7-1.5,5.6c-0.4,1.3,0.1,2.4,0.7,3.5C43.5,106.7,43.9,107.4,44.4,108.3z"/>
				<path class="st1" d="M53,40.1c0.3,0.1,0.7,0.1,1,0.2c2.5,0.5,2.9,1.5,1.7,3.6c-0.5,0.8-1.3,1-2,1c-2.2-0.1-3.3-0.1-3.8-2.9
					c-0.1-0.6,0.1-1.1,0.7-1.3c0.8-0.3,1.5-0.5,2.3-0.7C53,40.1,53,40.1,53,40.1z"/>
				<path class="st1" d="M47,29.7c2.3-0.3,3.2,0.3,3.3,2.6c-0.8,0-1.6,0-2.3,0c-0.2,0-0.4-0.2-0.5-0.4C47.3,31.2,47.2,30.4,47,29.7z
					"/>
				<path class="st1" d="M59.8,29.9c0,0.1,0.1,0.1,0,0.2c-0.5,2.4-0.5,2.4-3.3,2.3C56.6,30.2,57.7,29.4,59.8,29.9z"/>
			</g>
		</g>
	</g>
	<g>
		<g>
			<path class="st0" d="M353.2,53.9c-0.2-0.1-0.5-0.1-0.7,0c0.1-0.1,0-0.2-0.2-0.3c-0.2-0.1-0.5-0.1-0.7,0c-0.2,0.1-0.3,0.2-0.2,0.3
				c-0.2-0.1-0.5-0.1-0.7,0c-0.2,0.1-0.2,0.2-0.1,0.3c0.2,0.2,0.7,0.4,1.2,0.4c-0.5,0.2-1,0.4-1.5,0.6c-0.6,0.2-1.2,0.3-1.8,0.4
				c-1.1,0.2-2.3,0.3-3.4,0.3l0-0.2c0.6,0,1.2-0.2,1.8-0.4c0.3-0.1,0.6-0.3,0.9-0.6c0,0,0,0,0,0c0.1,0,0.1,0,0.2,0
				c0.5-0.1,1-0.3,1.5-0.4c0.5-0.2,0.9-0.4,1.3-0.8c0.1,0,0.1,0,0.2,0c0.6,0,1.2-0.2,1.4-0.4c0-0.1,0-0.2-0.2-0.3
				c-0.2-0.1-0.5-0.1-0.7,0c0.1-0.1,0-0.2-0.2-0.3c-0.2-0.1-0.5-0.1-0.7,0c-0.2,0.1-0.3,0.2-0.2,0.3c-0.2-0.1-0.5-0.1-0.7,0
				c-0.2,0.1-0.2,0.2-0.1,0.3c0.2,0.2,0.6,0.4,1,0.4c-0.4,0.2-0.8,0.4-1.2,0.5c-0.4,0.1-0.8,0.2-1.3,0.3c0.1-0.1,0.2-0.3,0.3-0.4
				c0,0,0.1,0,0.1,0c0.5,0,1-0.1,1.2-0.4c0-0.1,0-0.2-0.2-0.2c-0.2-0.1-0.4-0.1-0.6,0c0.1-0.1,0-0.2-0.2-0.2c-0.2-0.1-0.4-0.1-0.6,0
				c-0.2,0.1-0.2,0.2-0.2,0.2c-0.2-0.1-0.4,0-0.5,0c-0.1,0.1-0.2,0.2-0.1,0.3c0.2,0.2,0.5,0.3,0.9,0.4c-0.1,0.2-0.3,0.3-0.4,0.5
				c-0.9,0.2-1.8,0.2-2.8,0.2l0-0.4c0.3,0,0.5-0.1,0.7-0.2c0.3-0.1,0.6-0.3,0.8-0.5c0.1-0.1,0.2-0.2,0.3-0.3c0.2,0,0.5-0.1,0.7-0.1
				c0.5-0.1,0.9-0.2,1.3-0.3c0.2-0.1,0.4-0.2,0.6-0.3c0.1-0.1,0.3-0.2,0.4-0.3c0.1,0,0.2,0,0.3,0c0.5,0,1-0.2,1.2-0.4
				c0-0.1,0-0.2-0.2-0.3c-0.2-0.1-0.4-0.1-0.6,0c0.1-0.1,0-0.2-0.2-0.3c-0.2-0.1-0.4-0.1-0.6,0c-0.2,0.1-0.3,0.2-0.2,0.3
				c-0.2-0.1-0.4,0-0.6,0c-0.2,0.1-0.2,0.2-0.1,0.3c0.1,0.2,0.4,0.3,0.7,0.3l-0.1,0.1l-0.1,0.1c-0.2,0.1-0.4,0.2-0.6,0.2
				c-0.4,0.1-0.9,0.2-1.3,0.3c-0.1,0-0.3,0-0.4,0c0.1-0.3,0.3-0.5,0.3-0.8c0,0,0.1,0,0.1,0c0.5,0,1-0.1,1.2-0.4c0-0.1,0-0.2-0.2-0.2
				s-0.4-0.1-0.6,0c0.1-0.1,0-0.2-0.2-0.2c-0.2-0.1-0.4-0.1-0.6,0c-0.2,0.1-0.2,0.2-0.2,0.2c-0.2-0.1-0.4,0-0.5,0
				c-0.1,0.1-0.2,0.2-0.1,0.3c0.2,0.2,0.5,0.3,0.9,0.4c-0.1,0.3-0.3,0.6-0.5,0.9c-0.6,0.1-1.1,0.1-1.7,0.1l0-0.7
				c0.3,0,0.6-0.2,0.9-0.4c0.3-0.2,0.5-0.5,0.6-0.8c0,0,0,0,0,0c0.5,0,1-0.2,1.2-0.4c0-0.1,0-0.2-0.2-0.3c-0.2-0.1-0.4-0.1-0.6,0
				c0.1-0.1,0-0.2-0.2-0.3c-0.2-0.1-0.4-0.1-0.6,0c-0.2,0.1-0.3,0.2-0.2,0.3c-0.2-0.1-0.4,0-0.6,0s-0.2,0.2-0.1,0.3
				c0.2,0.2,0.6,0.4,1.1,0.4c-0.2,0.3-0.4,0.5-0.6,0.6c-0.2,0.1-0.5,0.2-0.8,0.3l0-1.8c0.5,0,0.9-0.2,1-0.4c0.1-0.1,0.1-0.2-0.1-0.3
				c-0.2-0.1-0.4-0.1-0.6,0c0.1-0.1,0-0.2-0.2-0.3c-0.2-0.1-0.4-0.1-0.6,0c-0.2,0.1-0.3,0.2-0.2,0.3c-0.2,0-0.4,0-0.6,0
				c-0.2,0.1-0.3,0.2-0.2,0.3c0.2,0.2,0.6,0.4,1.1,0.4l0,1.8c-0.3,0-0.6-0.1-0.8-0.3c-0.2-0.2-0.5-0.4-0.6-0.6
				c0.5,0,0.9-0.2,1.1-0.4c0.1-0.1,0.1-0.2-0.1-0.3c-0.2-0.1-0.4-0.1-0.6,0c0.1-0.1,0-0.2-0.2-0.3c-0.2-0.1-0.4-0.1-0.6,0
				c-0.2,0.1-0.3,0.2-0.2,0.3c-0.2,0-0.4,0-0.6,0c-0.2,0.1-0.3,0.2-0.2,0.3c0.2,0.2,0.7,0.4,1.2,0.4c0,0,0,0,0,0
				c0.1,0.3,0.3,0.6,0.6,0.8c0.3,0.2,0.6,0.3,1,0.4l0,0.7c-0.6,0-1.2,0-1.8-0.1c-0.2-0.3-0.4-0.6-0.5-0.9c0.4,0,0.8-0.2,0.9-0.4
				c0.1-0.1,0.1-0.2-0.1-0.3s-0.4-0.1-0.5,0c0.1-0.1,0-0.2-0.2-0.2c-0.2-0.1-0.4-0.1-0.6,0c-0.2,0.1-0.2,0.2-0.2,0.2
				c-0.2,0-0.4,0-0.6,0c-0.2,0.1-0.2,0.2-0.2,0.2c0.2,0.2,0.7,0.4,1.2,0.4c0,0,0.1,0,0.1,0c0.1,0.3,0.2,0.6,0.3,0.8
				c-0.1,0-0.3,0-0.4,0c-0.4-0.1-0.9-0.1-1.3-0.3c-0.2-0.1-0.4-0.1-0.6-0.2l-0.1-0.1l-0.1-0.1c0.3-0.1,0.6-0.2,0.7-0.3
				c0.1-0.1,0.1-0.2-0.1-0.3c-0.2-0.1-0.4-0.1-0.6,0c0.1-0.1,0-0.2-0.2-0.3c-0.2-0.1-0.4-0.1-0.6,0c-0.2,0.1-0.3,0.2-0.2,0.3
				c-0.2,0-0.4,0-0.6,0c-0.2,0.1-0.3,0.2-0.2,0.3c0.2,0.2,0.7,0.4,1.2,0.4c0.1,0,0.2,0,0.3,0c0.1,0.1,0.2,0.2,0.4,0.3
				c0.2,0.1,0.4,0.2,0.6,0.3c0.4,0.1,0.9,0.2,1.3,0.3c0.2,0,0.5,0.1,0.7,0.1c0.1,0.1,0.2,0.2,0.3,0.3c0.2,0.2,0.5,0.4,0.8,0.5
				c0.2,0.1,0.5,0.2,0.8,0.2l0,0.4c-1,0-1.9-0.1-2.8-0.2c-0.2-0.1-0.3-0.3-0.4-0.5c0.4,0,0.8-0.2,0.9-0.4c0.1-0.1,0.1-0.2-0.1-0.3
				c-0.1-0.1-0.4-0.1-0.5,0c0.1-0.1,0-0.2-0.2-0.2c-0.2-0.1-0.4-0.1-0.6,0c-0.2,0.1-0.2,0.2-0.2,0.2c-0.2,0-0.4,0-0.6,0
				c-0.2,0.1-0.2,0.2-0.2,0.2c0.2,0.2,0.7,0.4,1.2,0.4c0,0,0.1,0,0.1,0c0.1,0.1,0.1,0.3,0.2,0.4c-0.4-0.1-0.8-0.2-1.2-0.3
				c-0.4-0.1-0.8-0.3-1.2-0.6c0.4-0.1,0.8-0.2,1-0.4c0.1-0.1,0.1-0.2-0.1-0.3c-0.2-0.1-0.5-0.1-0.7,0c0.1-0.1,0-0.2-0.2-0.3
				c-0.2-0.1-0.5-0.1-0.7,0c-0.2,0.1-0.3,0.2-0.2,0.3c-0.2-0.1-0.5,0-0.7,0c-0.2,0.1-0.3,0.2-0.2,0.3c0.2,0.3,0.8,0.4,1.4,0.4
				c0.1,0,0.2,0,0.2,0c0.4,0.3,0.9,0.6,1.3,0.8c0.5,0.2,1,0.3,1.5,0.4c0,0,0.1,0,0.1,0c0,0,0,0,0,0c0.3,0.2,0.6,0.4,0.9,0.6
				c0.6,0.3,1.2,0.4,1.9,0.4l0,0.2c-1.2,0-2.3-0.1-3.5-0.3c-0.6-0.1-1.2-0.2-1.8-0.4c-0.5-0.1-1-0.3-1.5-0.6c0.5,0,1-0.2,1.2-0.4
				c0.1-0.1,0.1-0.2-0.1-0.3c-0.2-0.1-0.5-0.1-0.7,0c0.1-0.1,0-0.2-0.2-0.3c-0.2-0.1-0.5-0.1-0.7,0c-0.2,0.1-0.3,0.2-0.2,0.3
				c-0.2-0.1-0.5,0-0.7,0c-0.2,0.1-0.3,0.2-0.2,0.3c0.2,0.3,0.8,0.4,1.4,0.4c1.1,0.7,2.3,1,3.5,1.2c1,0.2,2.1,0.3,3.1,0.3
				c-0.5,0-1,0.1-1.5,0.2c-0.5,0.1-1.1,0.2-1.6,0.4c-0.1-0.1-0.2-0.1-0.4-0.1c-0.3,0-0.5,0.2-0.5,0.4c0,0.2,0.2,0.4,0.5,0.4
				s0.5-0.2,0.5-0.4c0,0,0-0.1,0-0.1c0.2,0,0.3-0.1,0.5-0.1c0.3-0.1,0.7-0.1,1-0.2c0.3,0,0.6-0.1,0.9-0.1c0,0-0.1,0-0.1,0
				c-0.3,0.1-0.6,0.3-0.9,0.5c0,0-0.1,0-0.2,0c-0.2,0-0.4,0.1-0.4,0.3c0,0.1,0.2,0.3,0.4,0.3c0.2,0,0.4-0.1,0.4-0.3
				c0-0.1,0-0.1-0.1-0.2c0.2-0.2,0.5-0.3,0.8-0.4c0.3-0.1,0.6-0.2,1-0.3l-0.1,3.9c0,0-0.1,0-0.1,0c-0.1,0-0.2,0.1-0.2,0.2
				c-0.1,0-0.3,0-0.5,0c-0.1,0.1-0.1,0.1-0.1,0.2c0.1,0.1,0.3,0.2,0.6,0.3l-0.1,0l-0.1,0.1c-0.2,0.1-0.3,0.1-0.5,0.2
				c-0.3,0.1-0.7,0.2-1,0.2c-0.1,0-0.2,0-0.3,0c0.1-0.2,0.2-0.4,0.3-0.7c0,0,0,0,0.1,0c0.4,0,0.8-0.1,0.9-0.3c0-0.1,0-0.2-0.2-0.2
				c-0.1,0-0.3-0.1-0.5,0c0-0.1,0-0.1-0.1-0.2c-0.1,0-0.3,0-0.4,0c-0.1,0-0.2,0.1-0.1,0.2c-0.1,0-0.3,0-0.4,0
				c-0.1,0.1-0.1,0.1-0.1,0.2c0.1,0.1,0.4,0.2,0.7,0.3c-0.1,0.3-0.3,0.5-0.4,0.7c-0.5,0-0.9,0.1-1.4,0.1l0-0.6
				c0.3,0,0.5-0.1,0.7-0.3c0.2-0.2,0.4-0.4,0.5-0.7c0,0,0,0,0,0c0.4,0,0.8-0.1,1-0.3c0-0.1,0-0.2-0.2-0.2c-0.1,0-0.3-0.1-0.5,0
				c0-0.1,0-0.2-0.2-0.2c-0.1,0-0.3,0-0.5,0s-0.2,0.1-0.2,0.2c-0.1,0-0.3,0-0.5,0c-0.1,0.1-0.1,0.1-0.1,0.2c0.1,0.2,0.5,0.3,0.8,0.3
				c-0.1,0.2-0.3,0.4-0.5,0.5c-0.2,0.1-0.4,0.2-0.6,0.2l0-1.4c0.4,0,0.7-0.1,0.8-0.3c0.1-0.1,0.1-0.2-0.1-0.2
				c-0.1-0.1-0.3-0.1-0.5,0c0-0.1,0-0.2-0.2-0.2c-0.1,0-0.3,0-0.5,0c-0.1,0-0.2,0.1-0.2,0.2c-0.2,0-0.3,0-0.5,0
				c-0.1,0-0.2,0.1-0.2,0.2c0.1,0.2,0.5,0.3,0.9,0.3l0,1.4c-0.2,0-0.5-0.1-0.6-0.2c-0.2-0.1-0.4-0.3-0.5-0.5c0.4,0,0.7-0.1,0.8-0.3
				c0.1-0.1,0.1-0.2-0.1-0.2c-0.1-0.1-0.3-0.1-0.5,0c0-0.1,0-0.2-0.2-0.2c-0.1,0-0.3,0-0.5,0c-0.1,0-0.2,0.1-0.2,0.2
				c-0.2,0-0.3,0-0.5,0c-0.1,0-0.2,0.1-0.2,0.2c0.2,0.2,0.5,0.3,1,0.3c0,0,0,0,0,0c0.1,0.3,0.3,0.5,0.5,0.7c0.2,0.2,0.5,0.3,0.8,0.3
				l0,0.6c-0.5,0-0.9,0-1.4-0.1c-0.2-0.2-0.3-0.4-0.4-0.7c0.3,0,0.6-0.1,0.7-0.3c0.1-0.1,0.1-0.1-0.1-0.2c-0.1-0.1-0.3-0.1-0.4,0
				c0-0.1,0-0.1-0.1-0.2c-0.1,0-0.3,0-0.4,0c-0.1,0-0.2,0.1-0.1,0.2c-0.1,0-0.3,0-0.5,0c-0.1,0-0.2,0.1-0.2,0.2
				c0.1,0.2,0.5,0.3,0.9,0.3c0,0,0,0,0.1,0c0.1,0.2,0.1,0.4,0.3,0.7c-0.1,0-0.2,0-0.3,0c-0.4,0-0.7-0.1-1-0.2
				c-0.2,0-0.3-0.1-0.5-0.2l-0.1-0.1l-0.1,0c0.3,0,0.5-0.1,0.6-0.3c0.1-0.1,0.1-0.2-0.1-0.2c-0.1-0.1-0.3-0.1-0.5,0
				c0-0.1,0-0.2-0.2-0.2c-0.1,0-0.3,0-0.5,0c-0.1,0-0.2,0.1-0.2,0.2c-0.2,0-0.3,0-0.5,0c-0.1,0-0.2,0.1-0.2,0.2
				c0.2,0.2,0.5,0.3,1,0.3c0.1,0,0.1,0,0.2,0c0.1,0.1,0.2,0.2,0.3,0.2c0.2,0.1,0.3,0.2,0.5,0.2c0.3,0.1,0.7,0.2,1.1,0.3
				c0.2,0,0.4,0.1,0.5,0.1c0.1,0.1,0.1,0.2,0.2,0.3c0.2,0.2,0.4,0.3,0.6,0.4c0.2,0.1,0.4,0.1,0.6,0.2l0,0.3c-0.8,0-1.5-0.1-2.3-0.2
				c-0.1-0.1-0.2-0.2-0.3-0.4c0.3,0,0.6-0.1,0.7-0.3c0.1-0.1,0.1-0.1-0.1-0.2c-0.1-0.1-0.3-0.1-0.4,0c0-0.1,0-0.1-0.1-0.2
				c-0.1,0-0.3,0-0.4,0c-0.1,0-0.2,0.1-0.1,0.2c-0.1,0-0.3,0-0.5,0c-0.1,0-0.2,0.1-0.2,0.2c0.1,0.2,0.5,0.3,0.9,0.3c0,0,0,0,0.1,0
				c0.1,0.1,0.1,0.2,0.2,0.3c-0.3-0.1-0.6-0.1-0.9-0.2c-0.3-0.1-0.7-0.3-1-0.4c0.3,0,0.6-0.2,0.8-0.3c0.1-0.1,0.1-0.2-0.1-0.2
				c-0.1-0.1-0.4-0.1-0.5,0c0.1-0.1,0-0.2-0.2-0.2c-0.2-0.1-0.4-0.1-0.5,0c-0.2,0.1-0.2,0.1-0.2,0.2c-0.2,0-0.4,0-0.6,0
				c-0.2,0.1-0.2,0.1-0.2,0.2c0.2,0.2,0.6,0.4,1.1,0.4c0.1,0,0.1,0,0.2,0c0.3,0.3,0.7,0.5,1.1,0.6c0.4,0.2,0.8,0.3,1.2,0.4
				c0,0,0.1,0,0.1,0c0,0,0,0,0,0c0.2,0.2,0.5,0.3,0.7,0.4c0.5,0.2,1,0.3,1.5,0.3l0,0.2c-0.9,0-1.9-0.1-2.8-0.2
				c-0.5-0.1-1-0.2-1.4-0.3c-0.4-0.1-0.8-0.3-1.2-0.5c0.4,0,0.8-0.2,0.9-0.3c0.1-0.1,0.1-0.2-0.1-0.2c-0.1-0.1-0.4-0.1-0.5,0
				c0.1-0.1,0-0.2-0.2-0.2c-0.2-0.1-0.4-0.1-0.5,0c-0.2,0.1-0.2,0.1-0.2,0.2c-0.2,0-0.4,0-0.6,0c-0.2,0.1-0.2,0.1-0.2,0.2
				c0.2,0.2,0.6,0.3,1.1,0.4c0.9,0.5,1.8,0.8,2.8,1c0.8,0.2,1.7,0.2,2.5,0.2c-0.4,0-0.8,0.1-1.2,0.2c-0.4,0.1-0.8,0.2-1.2,0.3
				c-0.1-0.1-0.2-0.1-0.3-0.1c-0.2,0-0.4,0.1-0.4,0.3c0,0.2,0.2,0.3,0.4,0.3c0.2,0,0.4-0.1,0.4-0.3c0,0,0-0.1,0-0.1
				c0.1,0,0.3-0.1,0.4-0.1c0.3-0.1,0.5-0.1,0.8-0.2c0.2,0,0.5-0.1,0.7-0.1c0,0-0.1,0-0.1,0c-0.2,0.1-0.5,0.2-0.7,0.4
				c0,0-0.1,0-0.1,0c-0.2,0-0.3,0.1-0.3,0.2c0,0.1,0.1,0.2,0.3,0.2s0.3-0.1,0.3-0.2c0,0,0-0.1-0.1-0.1c0.2-0.1,0.4-0.2,0.6-0.3
				c0.3-0.1,0.5-0.2,0.8-0.2l-0.3,19.2l0,0.2c0.4-0.1,0.7-0.2,1.1-0.4l0-0.2l-0.3-18.8c0.2,0.1,0.5,0.1,0.7,0.2
				c0.2,0.1,0.4,0.2,0.6,0.3c0,0-0.1,0.1-0.1,0.1c0,0.1,0.1,0.2,0.3,0.2c0.2,0,0.3-0.1,0.3-0.2c0-0.1-0.1-0.2-0.3-0.2
				c0,0-0.1,0-0.1,0c-0.2-0.2-0.4-0.3-0.7-0.4c0,0-0.1,0-0.1,0c0.2,0,0.4,0.1,0.7,0.1c0.3,0,0.5,0.1,0.8,0.2c0.1,0,0.3,0.1,0.4,0.1
				c0,0,0,0.1,0,0.1c0,0.2,0.2,0.3,0.4,0.3s0.4-0.1,0.4-0.3c0-0.2-0.2-0.3-0.4-0.3c-0.1,0-0.2,0-0.3,0.1c-0.4-0.2-0.8-0.3-1.2-0.3
				c-0.4-0.1-0.8-0.1-1.2-0.2c0.8,0,1.7-0.1,2.5-0.2c0.3-0.1,0.7-0.1,1-0.2l-0.3,18.1l0,0.2c0.5-0.2,0.9-0.5,1.4-0.8l0-0.2
				l-0.3-17.5c0.4-0.1,0.7-0.3,1-0.5c0.5,0,0.9-0.1,1.1-0.4c0-0.1,0-0.2-0.2-0.2c-0.2-0.1-0.4-0.1-0.6,0c0.1-0.1,0-0.2-0.2-0.2
				c-0.2-0.1-0.4-0.1-0.5,0c-0.2,0.1-0.2,0.1-0.2,0.2c-0.2,0-0.3,0-0.5,0l0-0.3c0,0,0,0,0.1,0c0,0,0.1,0,0.1,0
				c0.5,0,0.9-0.1,1.1-0.4c0-0.1,0-0.2-0.2-0.2c-0.2-0.1-0.4-0.1-0.6,0c0.1-0.1,0-0.2-0.2-0.2c-0.1,0-0.3,0-0.4,0l0-0.2
				c0.2-0.1,0.4-0.1,0.5-0.3c0-0.1,0-0.2-0.2-0.2c-0.1,0-0.2,0-0.4,0l-0.1-4.1c0.3,0.1,0.6,0.2,0.9,0.3c0.3,0.1,0.6,0.2,0.8,0.4
				c-0.1,0-0.1,0.1-0.1,0.2c0,0.1,0.2,0.3,0.4,0.3c0.2,0,0.4-0.1,0.4-0.3c0-0.1-0.2-0.3-0.4-0.3c-0.1,0-0.1,0-0.1,0
				c-0.3-0.2-0.6-0.4-0.9-0.5c0,0-0.1,0-0.1,0c0.3,0,0.6,0.1,0.8,0.1c0.3,0.1,0.7,0.1,1,0.2c0.2,0,0.3,0.1,0.5,0.1c0,0,0,0.1,0,0.1
				c0,0.2,0.2,0.4,0.5,0.4s0.5-0.2,0.5-0.4c0-0.2-0.2-0.4-0.5-0.4c-0.2,0-0.3,0-0.4,0.1c-0.5-0.2-1-0.3-1.6-0.4
				c-0.5-0.1-1-0.2-1.5-0.2c1.1,0,2.1-0.1,3.1-0.3c1.2-0.2,2.5-0.6,3.5-1.2c0.6,0,1.1-0.2,1.4-0.4C353.5,54.1,353.4,54,353.2,53.9z
				 M340.2,63.6c-0.5,0-1-0.1-1.4-0.3c-0.1,0-0.2-0.1-0.3-0.1c0.6,0.1,1.1,0.1,1.7,0.1L340.2,63.6z M340.3,62.3
				c-0.4,0-0.8-0.2-1.1-0.5c0,0,0,0,0,0c0.4,0,0.8,0,1.1,0.1L340.3,62.3z M347.1,54.8c-0.1,0.1-0.2,0.1-0.4,0.2
				c-0.5,0.2-1.1,0.3-1.7,0.3l0-0.3C345.7,54.9,346.4,54.9,347.1,54.8z M346.3,53.1C346.3,53.1,346.3,53.2,346.3,53.1
				c-0.4,0.4-0.9,0.6-1.4,0.6l0-0.6C345.4,53.2,345.9,53.2,346.3,53.1z M343.2,53.2C343.2,53.2,343.2,53.1,343.2,53.2
				c0.4,0,0.9,0,1.4,0l0,0.6C344.1,53.7,343.6,53.5,343.2,53.2z M342.8,54.9c-0.1-0.1-0.3-0.1-0.4-0.2c0.7,0.1,1.4,0.2,2.2,0.2
				l0,0.4C343.9,55.3,343.3,55.2,342.8,54.9z M340.6,61.9c0.4,0,0.7,0,1.1-0.1c0,0,0,0,0,0c-0.3,0.3-0.7,0.4-1,0.5L340.6,61.9z
				 M340.6,62.6c0.2,0,0.4-0.1,0.6-0.1c0.2-0.1,0.5-0.3,0.6-0.4c0.1-0.1,0.2-0.2,0.2-0.3c0.2,0,0.4,0,0.5-0.1
				c0.4-0.1,0.7-0.1,1.1-0.3c0.2-0.1,0.3-0.1,0.5-0.2c0.1-0.1,0.2-0.1,0.3-0.2c0,0,0,0,0,0l0,0.4c-0.1,0-0.1,0-0.2,0
				c-0.1,0.1-0.2,0.2-0.1,0.2c0.1,0.1,0.1,0.1,0.2,0.2l0,0.5c-0.1,0-0.2,0.1-0.4,0.1c-0.3,0.1-0.7,0.2-1,0.3
				c0.1-0.1,0.1-0.2,0.2-0.3c0,0,0,0,0.1,0c0.4,0,0.8-0.1,0.9-0.3c0-0.1,0-0.2-0.2-0.2c-0.1,0-0.3-0.1-0.5,0c0-0.1,0-0.1-0.1-0.2
				c-0.1,0-0.3,0-0.4,0c-0.1,0-0.2,0.1-0.1,0.2c-0.1,0-0.3,0-0.4,0c-0.1,0.1-0.1,0.1-0.1,0.2c0.1,0.1,0.4,0.2,0.7,0.3
				c-0.1,0.1-0.2,0.3-0.4,0.4c-0.7,0.1-1.5,0.2-2.2,0.2L340.6,62.6z M340.6,63.3c0.6,0,1.1,0,1.6-0.1c-0.1,0-0.2,0.1-0.3,0.1
				c-0.4,0.2-0.9,0.3-1.4,0.3L340.6,63.3z M343.3,63.8c-0.9,0.1-1.8,0.2-2.7,0.2l0-0.2c0.5,0,1-0.1,1.4-0.3c0.3-0.1,0.5-0.3,0.7-0.4
				c0,0,0,0,0,0c0.1,0,0.1,0,0.2,0c0.4-0.1,0.8-0.2,1.2-0.4c0.1,0,0.2-0.1,0.3-0.1l0,1.1C344.1,63.7,343.7,63.7,343.3,63.8z
				 M345.9,63c-0.3,0.1-0.5,0.2-0.8,0.3l0-0.6C345.3,62.9,345.6,63,345.9,63z"/>
			<path class="st0" d="M346,43.3c-0.3-0.1-0.8-0.1-1.2-0.1c0.1-0.2,0-0.4-0.4-0.5c-0.3-0.1-0.8-0.1-1.1,0c-0.3,0.1-0.5,0.3-0.4,0.5
				c-0.4-0.1-0.8-0.1-1.1,0c-0.3,0.1-0.4,0.3-0.2,0.5c0.3,0.4,1.1,0.7,2,0.7c-0.8,0.4-1.7,0.7-2.5,1c-1,0.3-2,0.5-3.1,0.7
				c-1.9,0.3-3.9,0.5-5.8,0.5l0-0.4c1.1-0.1,2.1-0.3,3.1-0.7c0.5-0.3,1.1-0.6,1.5-1c0,0,0,0,0,0c0.1,0,0.2,0,0.3-0.1
				c0.9-0.2,1.7-0.4,2.6-0.8c0.8-0.3,1.6-0.7,2.3-1.3c0.1,0,0.2,0,0.3,0c1.1,0,2-0.3,2.4-0.8c0.1-0.2-0.1-0.4-0.4-0.5
				c-0.3-0.1-0.8-0.1-1.2-0.1c0.1-0.2,0-0.4-0.4-0.5c-0.3-0.1-0.8-0.1-1.1,0c-0.3,0.1-0.5,0.3-0.4,0.5c-0.4-0.1-0.8-0.1-1.1,0
				c-0.3,0.1-0.4,0.3-0.2,0.5c0.3,0.4,1,0.6,1.7,0.7c-0.6,0.4-1.3,0.7-2.1,0.9c-0.7,0.2-1.4,0.4-2.1,0.6c0.2-0.2,0.3-0.4,0.4-0.7
				c0.1,0,0.1,0,0.2,0c0.9,0,1.7-0.2,2-0.6c0.1-0.2-0.1-0.3-0.3-0.4c-0.3-0.1-0.7-0.1-1,0c0.1-0.2,0-0.3-0.3-0.4
				c-0.3-0.1-0.7-0.1-0.9,0c-0.3,0.1-0.4,0.3-0.3,0.4c-0.3-0.1-0.7-0.1-0.9,0c-0.3,0.1-0.3,0.3-0.1,0.4c0.3,0.3,0.9,0.5,1.5,0.6
				c-0.2,0.3-0.5,0.6-0.7,0.8c-1.5,0.3-3.1,0.4-4.7,0.4l0-0.7c0.4,0,0.8-0.1,1.2-0.3c0.5-0.2,1-0.5,1.4-0.9c0.2-0.2,0.3-0.4,0.5-0.6
				c0.4,0,0.8-0.1,1.1-0.2c0.8-0.1,1.5-0.3,2.3-0.5c0.4-0.1,0.7-0.3,1.1-0.5c0.2-0.1,0.4-0.3,0.6-0.5c0.2,0,0.3,0,0.5,0
				c0.9,0,1.7-0.3,2.1-0.6c0.1-0.2-0.1-0.3-0.4-0.4c-0.3-0.1-0.7-0.1-1,0c0.1-0.2,0-0.3-0.3-0.4c-0.3-0.1-0.7-0.1-1,0
				c-0.3,0.1-0.4,0.3-0.3,0.4c-0.3-0.1-0.7-0.1-1,0c-0.3,0.1-0.3,0.3-0.1,0.4c0.2,0.3,0.7,0.5,1.2,0.6l-0.2,0.1l-0.2,0.1
				c-0.3,0.2-0.7,0.3-1.1,0.4c-0.7,0.2-1.5,0.3-2.2,0.4c-0.2,0-0.5,0.1-0.7,0.1c0.3-0.4,0.4-0.9,0.6-1.4c0,0,0.1,0,0.1,0
				c0.9,0,1.7-0.2,2-0.6c0.1-0.2-0.1-0.3-0.3-0.4c-0.3-0.1-0.7-0.1-1,0c0.1-0.2,0-0.3-0.3-0.4c-0.3-0.1-0.7-0.1-0.9,0
				c-0.3,0.1-0.4,0.3-0.3,0.4c-0.3-0.1-0.7-0.1-0.9,0c-0.3,0.1-0.3,0.3-0.1,0.4c0.3,0.3,0.9,0.5,1.5,0.6c-0.2,0.5-0.5,1-0.9,1.5
				c-1,0.1-1.9,0.1-2.9,0.1l0-1.3c0.5-0.1,1.1-0.3,1.5-0.6c0.5-0.4,0.9-0.9,1.1-1.4c0,0,0,0,0,0c0.9,0,1.7-0.3,2.1-0.6
				c0.1-0.2-0.1-0.3-0.4-0.4c-0.3-0.1-0.7-0.1-1,0c0.1-0.2,0-0.3-0.3-0.4c-0.3-0.1-0.7-0.1-1,0c-0.3,0.1-0.4,0.3-0.3,0.4
				c-0.3-0.1-0.7-0.1-1,0c-0.3,0.1-0.3,0.3-0.1,0.4c0.3,0.4,1,0.6,1.8,0.6c-0.3,0.4-0.6,0.8-1,1.1c-0.4,0.3-0.8,0.4-1.3,0.5l-0.1-3
				c0.8-0.1,1.4-0.3,1.7-0.6c0.2-0.1,0.1-0.3-0.1-0.4c-0.3-0.1-0.7-0.1-1,0c0.1-0.2,0-0.3-0.3-0.4c-0.3-0.1-0.7-0.1-1,0
				c-0.3,0.1-0.4,0.3-0.3,0.4c-0.3-0.1-0.7-0.1-1,0c-0.3,0.1-0.4,0.3-0.4,0.4c0.3,0.4,1.1,0.6,1.9,0.6l-0.1,3c-0.5,0-1-0.2-1.4-0.5
				c-0.4-0.3-0.8-0.7-1-1.1c0.8,0,1.5-0.3,1.8-0.6c0.2-0.1,0.1-0.3-0.1-0.4c-0.3-0.1-0.7-0.1-1,0c0.1-0.2,0-0.3-0.3-0.4
				c-0.3-0.1-0.7-0.1-1,0c-0.3,0.1-0.4,0.3-0.3,0.4c-0.3-0.1-0.7-0.1-1,0c-0.3,0.1-0.4,0.3-0.4,0.4c0.3,0.4,1.1,0.6,2.1,0.6
				c0,0,0,0,0,0c0.2,0.6,0.6,1.1,1.1,1.4c0.5,0.4,1,0.6,1.6,0.6l0,1.2c-1,0-2,0-3-0.1c-0.4-0.4-0.7-0.9-0.9-1.5
				c0.7-0.1,1.3-0.3,1.5-0.6c0.2-0.1,0.1-0.3-0.1-0.4c-0.3-0.1-0.6-0.1-0.9,0c0.1-0.2,0-0.3-0.3-0.4c-0.3-0.1-0.7-0.1-0.9,0
				c-0.3,0.1-0.4,0.3-0.3,0.4c-0.3-0.1-0.7-0.1-1,0c-0.3,0.1-0.4,0.3-0.3,0.4c0.3,0.4,1.1,0.6,2,0.6c0,0,0.1,0,0.1,0
				c0.1,0.5,0.3,1,0.6,1.4c-0.2,0-0.5,0-0.7-0.1c-0.8-0.1-1.5-0.2-2.2-0.4c-0.4-0.1-0.7-0.2-1.1-0.4l-0.2-0.1l-0.2-0.1
				c0.5-0.1,1-0.3,1.2-0.6c0.2-0.1,0.1-0.3-0.1-0.4c-0.3-0.1-0.7-0.1-1,0c0.1-0.2,0-0.3-0.3-0.4c-0.3-0.1-0.7-0.1-1,0
				c-0.3,0.1-0.4,0.3-0.3,0.4c-0.3-0.1-0.7-0.1-1,0c-0.3,0.1-0.4,0.3-0.4,0.4c0.3,0.4,1.1,0.6,2.1,0.6c0.2,0,0.3,0,0.5,0
				c0.2,0.2,0.4,0.3,0.6,0.5c0.4,0.2,0.7,0.3,1.1,0.5c0.7,0.2,1.5,0.4,2.3,0.5c0.4,0.1,0.8,0.1,1.1,0.2c0.1,0.2,0.3,0.4,0.5,0.6
				c0.4,0.4,0.9,0.7,1.4,0.9c0.4,0.2,0.9,0.3,1.3,0.3l0,0.7c-1.6,0-3.2-0.1-4.8-0.4c-0.3-0.2-0.5-0.5-0.7-0.8
				c0.7-0.1,1.3-0.3,1.5-0.6c0.2-0.1,0.1-0.3-0.1-0.4c-0.3-0.1-0.6-0.1-0.9,0c0.1-0.2,0-0.3-0.3-0.4c-0.3-0.1-0.7-0.1-0.9,0
				c-0.3,0.1-0.4,0.3-0.3,0.4c-0.3-0.1-0.7-0.1-1,0c-0.3,0.1-0.4,0.3-0.3,0.4c0.3,0.4,1.1,0.6,2,0.6c0.1,0,0.1,0,0.2,0
				c0.1,0.2,0.3,0.4,0.4,0.6c-0.7-0.1-1.4-0.3-2-0.5c-0.7-0.2-1.4-0.5-2.1-0.9c0.7-0.1,1.4-0.4,1.6-0.7c0.2-0.2,0.1-0.4-0.2-0.5
				c-0.3-0.1-0.8-0.2-1.1,0c0.1-0.2,0-0.4-0.4-0.5c-0.3-0.1-0.8-0.1-1.1,0c-0.3,0.1-0.5,0.3-0.4,0.5c-0.4-0.1-0.8-0.1-1.2,0.1
				c-0.3,0.1-0.5,0.3-0.4,0.5c0.4,0.5,1.3,0.8,2.4,0.8c0.1,0,0.3,0,0.4,0c0.7,0.6,1.5,1,2.3,1.3c0.8,0.3,1.7,0.6,2.6,0.8
				c0.1,0,0.1,0,0.2,0c0,0,0,0,0,0c0.5,0.4,1,0.7,1.5,1c1,0.5,2.1,0.7,3.2,0.7l0,0.4c-2,0-4-0.2-5.9-0.5c-1-0.2-2.1-0.4-3.1-0.7
				c-0.9-0.2-1.7-0.6-2.5-1c0.9-0.1,1.7-0.3,2-0.7c0.2-0.2,0.1-0.4-0.2-0.5c-0.3-0.1-0.8-0.2-1.1,0c0.1-0.2,0-0.4-0.4-0.5
				c-0.3-0.1-0.8-0.1-1.1,0c-0.3,0.1-0.5,0.3-0.4,0.5c-0.4-0.1-0.8-0.1-1.2,0.1c-0.3,0.1-0.5,0.3-0.4,0.5c0.4,0.4,1.3,0.7,2.3,0.8
				c1.8,1.1,3.9,1.7,6,2.1c1.8,0.3,3.5,0.5,5.3,0.5c-0.8,0.1-1.7,0.2-2.5,0.3c-0.9,0.2-1.8,0.4-2.6,0.7c-0.2-0.1-0.4-0.2-0.7-0.2
				c-0.5,0-0.9,0.3-0.9,0.6c0,0.3,0.4,0.6,0.9,0.6s0.9-0.3,0.9-0.6c0-0.1,0-0.1,0-0.2c0.3-0.1,0.5-0.2,0.8-0.2
				c0.6-0.1,1.1-0.3,1.7-0.3c0.5-0.1,1-0.1,1.4-0.2c-0.1,0-0.1,0-0.2,0.1c-0.5,0.2-1,0.5-1.5,0.9c-0.1,0-0.2,0-0.3,0
				c-0.4,0-0.7,0.2-0.7,0.5c0,0.3,0.3,0.5,0.7,0.5c0.4,0,0.7-0.2,0.7-0.5c0-0.1-0.1-0.2-0.1-0.3c0.4-0.3,0.9-0.5,1.4-0.7
				c0.5-0.2,1.1-0.4,1.7-0.5l-0.6,37.1l0,0.1c0.2,0,0.4,0,0.6,0c0.4,0,0.7,0,1.1,0c0.2,0,0.3,0,0.5,0l0-0.1l-0.6-37.1
				c0.5,0.1,1.1,0.3,1.6,0.5c0.5,0.2,0.9,0.4,1.4,0.7c-0.1,0.1-0.1,0.2-0.1,0.3c0,0.3,0.3,0.5,0.7,0.5c0.4,0,0.7-0.2,0.7-0.5
				c0-0.3-0.3-0.5-0.7-0.5c-0.1,0-0.2,0-0.3,0c-0.5-0.4-1-0.6-1.5-0.9c-0.1,0-0.1,0-0.2-0.1c0.5,0.1,1,0.1,1.4,0.2
				c0.6,0.1,1.1,0.2,1.7,0.3c0.3,0.1,0.5,0.1,0.8,0.2c0,0.1,0,0.1,0,0.2c0,0.3,0.4,0.6,0.9,0.6c0.5,0,0.9-0.3,0.9-0.6
				c0-0.3-0.4-0.6-0.9-0.6c-0.3,0-0.5,0.1-0.7,0.2c-0.9-0.3-1.7-0.6-2.6-0.7c-0.8-0.2-1.7-0.3-2.5-0.3c1.8-0.1,3.6-0.2,5.3-0.5
				c2.1-0.4,4.2-0.9,6-2.1c1,0,1.9-0.3,2.3-0.8C346.5,43.7,346.3,43.5,346,43.3z M335.7,44.8c-0.2,0.1-0.4,0.2-0.6,0.3
				c-0.9,0.4-1.9,0.5-2.9,0.6l0-0.6C333.4,45.1,334.5,45,335.7,44.8z M334.5,42C334.4,42.1,334.4,42.1,334.5,42
				c-0.7,0.6-1.5,1-2.3,1.1l0-1C332.9,42.1,333.7,42.1,334.5,42z M329.1,42.1C329.1,42.1,329.1,42.1,329.1,42.1c0.7,0,1.5,0,2.4,0.1
				l0,1C330.6,43.1,329.8,42.7,329.1,42.1z M328.5,45.1c-0.2-0.1-0.4-0.2-0.7-0.3c1.2,0.2,2.4,0.3,3.7,0.3l0,0.6
				C330.4,45.7,329.4,45.5,328.5,45.1z"/>
			<path class="st0" d="M329.2,63.5c0.5,0,0.9-0.1,1-0.3c0-0.1,0-0.2-0.2-0.2c-0.2-0.1-0.4-0.1-0.5,0c0.1-0.1,0-0.2-0.2-0.2
				c-0.2,0-0.4,0-0.5,0c-0.2,0-0.2,0.1-0.2,0.2c-0.2,0-0.4,0-0.5,0c-0.1,0.1-0.2,0.2-0.1,0.2c0.2,0.2,0.5,0.3,0.9,0.3
				c-0.4,0.2-0.7,0.3-1.1,0.4c-0.5,0.1-0.9,0.2-1.4,0.3c-0.9,0.1-1.7,0.2-2.6,0.2l0-0.2c0.5,0,0.9-0.1,1.4-0.3
				c0.2-0.1,0.5-0.3,0.7-0.4c0,0,0,0,0,0c0.1,0,0.1,0,0.1,0c0.4-0.1,0.8-0.2,1.2-0.3c0.4-0.1,0.7-0.3,1-0.6c0,0,0.1,0,0.1,0
				c0.5,0,0.9-0.1,1.1-0.3c0-0.1,0-0.2-0.2-0.2c-0.2-0.1-0.4-0.1-0.5,0c0.1-0.1,0-0.2-0.2-0.2c-0.2,0-0.4,0-0.5,0
				c-0.2,0-0.2,0.1-0.2,0.2c-0.2,0-0.4,0-0.5,0c-0.1,0.1-0.2,0.2-0.1,0.2c0.1,0.2,0.4,0.3,0.8,0.3c-0.3,0.2-0.6,0.3-0.9,0.4
				c-0.3,0.1-0.6,0.2-1,0.2c0.1-0.1,0.1-0.2,0.2-0.3c0,0,0,0,0.1,0c0.4,0,0.7-0.1,0.9-0.3c0-0.1,0-0.1-0.2-0.2c-0.1,0-0.3-0.1-0.4,0
				c0-0.1,0-0.1-0.1-0.2c-0.1,0-0.3,0-0.4,0c-0.1,0-0.2,0.1-0.1,0.2c-0.1,0-0.3,0-0.4,0c-0.1,0-0.1,0.1-0.1,0.2
				c0.1,0.1,0.4,0.2,0.7,0.3c-0.1,0.1-0.2,0.3-0.3,0.4c-0.7,0.1-1.4,0.2-2.1,0.2l0-0.3c0.2,0,0.4-0.1,0.6-0.1
				c0.2-0.1,0.4-0.2,0.6-0.4c0.1-0.1,0.2-0.2,0.2-0.2c0.2,0,0.3,0,0.5-0.1c0.3-0.1,0.7-0.1,1-0.2c0.2-0.1,0.3-0.1,0.5-0.2
				c0.1-0.1,0.2-0.1,0.3-0.2c0.1,0,0.1,0,0.2,0c0.4,0,0.8-0.1,0.9-0.3c0-0.1,0-0.1-0.2-0.2c-0.1,0-0.3-0.1-0.5,0
				c0-0.1,0-0.1-0.1-0.2s-0.3,0-0.4,0c-0.1,0-0.2,0.1-0.1,0.2c-0.1,0-0.3,0-0.4,0c-0.1,0.1-0.1,0.1-0.1,0.2c0.1,0.1,0.3,0.2,0.5,0.3
				l-0.1,0l-0.1,0.1c-0.2,0.1-0.3,0.1-0.5,0.2c-0.3,0.1-0.7,0.1-1,0.2c-0.1,0-0.2,0-0.3,0c0.1-0.2,0.2-0.4,0.3-0.6c0,0,0,0,0.1,0
				c0.4,0,0.7-0.1,0.9-0.3c0-0.1,0-0.1-0.2-0.2c-0.1,0-0.3-0.1-0.4,0c0-0.1,0-0.1-0.1-0.2c-0.1,0-0.3,0-0.4,0
				c-0.1,0-0.2,0.1-0.1,0.2c-0.1,0-0.3,0-0.4,0s-0.1,0.1-0.1,0.2c0.1,0.1,0.4,0.2,0.7,0.3c-0.1,0.2-0.2,0.5-0.4,0.7
				c-0.4,0-0.9,0.1-1.3,0.1l0-0.6c0.2,0,0.5-0.1,0.7-0.3c0.2-0.2,0.4-0.4,0.5-0.6c0,0,0,0,0,0c0.4,0,0.8-0.1,0.9-0.3
				c0-0.1,0-0.1-0.2-0.2c-0.1,0-0.3-0.1-0.5,0c0-0.1,0-0.1-0.1-0.2c-0.1,0-0.3,0-0.4,0c-0.1,0-0.2,0.1-0.1,0.2c-0.1,0-0.3,0-0.4,0
				c-0.1,0.1-0.1,0.1-0.1,0.2c0.1,0.2,0.4,0.3,0.8,0.3c-0.1,0.2-0.3,0.4-0.5,0.5c-0.2,0.1-0.4,0.2-0.6,0.2l0-1.3
				c0.3,0,0.6-0.1,0.8-0.3c0.1-0.1,0.1-0.1-0.1-0.2c-0.1-0.1-0.3-0.1-0.4,0c0-0.1,0-0.1-0.1-0.2c-0.1,0-0.3,0-0.4,0
				c-0.1,0-0.2,0.1-0.1,0.2c-0.1,0-0.3,0-0.5,0c-0.1,0-0.2,0.1-0.2,0.2c0.1,0.2,0.5,0.3,0.9,0.3l0,1.3c-0.2,0-0.4-0.1-0.6-0.2
				c-0.2-0.1-0.3-0.3-0.5-0.5c0.4,0,0.7-0.1,0.8-0.3c0.1-0.1,0.1-0.1-0.1-0.2c-0.1-0.1-0.3-0.1-0.4,0c0-0.1,0-0.1-0.1-0.2
				c-0.1,0-0.3,0-0.4,0c-0.1,0-0.2,0.1-0.1,0.2c-0.1,0-0.3,0-0.5,0c-0.1,0-0.2,0.1-0.2,0.2c0.1,0.2,0.5,0.3,0.9,0.3c0,0,0,0,0,0
				c0.1,0.2,0.3,0.5,0.5,0.6c0.2,0.2,0.5,0.3,0.7,0.3l0,0.6c-0.5,0-0.9,0-1.3-0.1c-0.2-0.2-0.3-0.4-0.4-0.7c0.3,0,0.6-0.1,0.7-0.3
				c0.1-0.1,0.1-0.1-0.1-0.2c-0.1,0-0.3-0.1-0.4,0c0-0.1,0-0.1-0.1-0.2c-0.1,0-0.3,0-0.4,0c-0.1,0-0.2,0.1-0.1,0.2
				c-0.1,0-0.3,0-0.4,0c-0.1,0-0.2,0.1-0.2,0.2c0.1,0.2,0.5,0.3,0.9,0.3c0,0,0,0,0.1,0c0.1,0.2,0.1,0.4,0.3,0.6c-0.1,0-0.2,0-0.3,0
				c-0.3,0-0.7-0.1-1-0.2c-0.2,0-0.3-0.1-0.5-0.2l-0.1-0.1l-0.1,0c0.2,0,0.4-0.1,0.5-0.3c0.1-0.1,0.1-0.1-0.1-0.2
				c-0.1-0.1-0.3-0.1-0.4,0c0-0.1,0-0.1-0.1-0.2c-0.1,0-0.3,0-0.4,0c-0.1,0-0.2,0.1-0.1,0.2c-0.1,0-0.3,0-0.5,0
				c-0.1,0-0.2,0.1-0.2,0.2c0.1,0.2,0.5,0.3,0.9,0.3c0.1,0,0.1,0,0.2,0c0.1,0.1,0.2,0.2,0.3,0.2c0.2,0.1,0.3,0.2,0.5,0.2
				c0.3,0.1,0.7,0.2,1,0.2c0.2,0,0.3,0.1,0.5,0.1c0.1,0.1,0.1,0.2,0.2,0.2c0.2,0.2,0.4,0.3,0.6,0.4c0.2,0.1,0.4,0.1,0.6,0.1l0,0.3
				c-0.7,0-1.4-0.1-2.2-0.2c-0.1-0.1-0.2-0.2-0.3-0.3c0.3,0,0.6-0.1,0.7-0.3c0.1-0.1,0.1-0.1-0.1-0.2c-0.1,0-0.3-0.1-0.4,0
				c0-0.1,0-0.1-0.1-0.2c-0.1,0-0.3,0-0.4,0c-0.1,0-0.2,0.1-0.1,0.2c-0.1,0-0.3,0-0.4,0c-0.1,0-0.2,0.1-0.2,0.2
				c0.1,0.2,0.5,0.3,0.9,0.3c0,0,0,0,0.1,0c0.1,0.1,0.1,0.2,0.2,0.3c-0.3-0.1-0.6-0.1-0.9-0.2c-0.3-0.1-0.6-0.2-0.9-0.4
				c0.3,0,0.6-0.2,0.7-0.3c0.1-0.1,0.1-0.2-0.1-0.2c-0.1-0.1-0.3-0.1-0.5,0c0.1-0.1,0-0.2-0.2-0.2c-0.2,0-0.4,0-0.5,0
				c-0.2,0-0.2,0.1-0.2,0.2c-0.2,0-0.4,0-0.5,0c-0.2,0.1-0.2,0.1-0.2,0.2c0.2,0.2,0.6,0.3,1.1,0.3c0.1,0,0.1,0,0.2,0
				c0.3,0.3,0.7,0.4,1,0.6c0.4,0.1,0.8,0.3,1.2,0.3c0,0,0.1,0,0.1,0c0,0,0,0,0,0c0.2,0.2,0.4,0.3,0.7,0.4c0.4,0.2,0.9,0.3,1.4,0.3
				l0,0.2c-0.9,0-1.8-0.1-2.7-0.2c-0.5-0.1-0.9-0.2-1.4-0.3c-0.4-0.1-0.8-0.3-1.1-0.4c0.4,0,0.7-0.2,0.9-0.3
				c0.1-0.1,0.1-0.2-0.1-0.2c-0.1-0.1-0.3-0.1-0.5,0c0.1-0.1,0-0.2-0.2-0.2c-0.2,0-0.4,0-0.5,0c-0.2,0-0.2,0.1-0.2,0.2
				c-0.2,0-0.4,0-0.5,0c-0.2,0.1-0.2,0.1-0.2,0.2c0.2,0.2,0.6,0.3,1,0.3c0.8,0.5,1.8,0.8,2.7,0.9c0.8,0.1,1.6,0.2,2.4,0.2
				c-0.4,0-0.7,0.1-1.1,0.2c-0.4,0.1-0.8,0.2-1.2,0.3c-0.1-0.1-0.2-0.1-0.3-0.1c-0.2,0-0.4,0.1-0.4,0.3c0,0.2,0.2,0.3,0.4,0.3
				c0.2,0,0.4-0.1,0.4-0.3c0,0,0-0.1,0-0.1c0.1,0,0.2-0.1,0.4-0.1c0.3-0.1,0.5-0.1,0.8-0.2c0.2,0,0.4-0.1,0.6-0.1c0,0-0.1,0-0.1,0
				c-0.2,0.1-0.5,0.2-0.7,0.4c0,0-0.1,0-0.1,0c-0.2,0-0.3,0.1-0.3,0.2c0,0.1,0.1,0.2,0.3,0.2c0.2,0,0.3-0.1,0.3-0.2
				c0,0,0-0.1-0.1-0.1c0.2-0.1,0.4-0.2,0.6-0.3c0.2-0.1,0.5-0.2,0.7-0.2l-0.3,18.3l0,0.2c0.3,0.2,0.7,0.3,1,0.4l0-0.2l-0.3-18.7
				c0.2,0.1,0.5,0.1,0.7,0.2c0.2,0.1,0.4,0.2,0.6,0.3c0,0-0.1,0.1-0.1,0.1c0,0.1,0.1,0.2,0.3,0.2c0.2,0,0.3-0.1,0.3-0.2
				c0-0.1-0.1-0.2-0.3-0.2c0,0-0.1,0-0.1,0c-0.2-0.2-0.4-0.3-0.7-0.4c0,0,0,0-0.1,0c0.2,0,0.4,0.1,0.6,0.1c0.3,0,0.5,0.1,0.8,0.2
				c0.1,0,0.2,0.1,0.4,0.1c0,0,0,0.1,0,0.1c0,0.2,0.2,0.3,0.4,0.3c0.2,0,0.4-0.1,0.4-0.3c0-0.2-0.2-0.3-0.4-0.3
				c-0.1,0-0.2,0-0.3,0.1c-0.4-0.1-0.8-0.2-1.2-0.3c-0.4-0.1-0.7-0.1-1.1-0.2c0.8,0,1.6-0.1,2.4-0.2C327.5,64.3,328.4,64,329.2,63.5
				z M325.5,63.6c-0.1,0-0.2,0.1-0.3,0.1c-0.4,0.2-0.9,0.2-1.3,0.3l0-0.3C324.4,63.7,324.9,63.7,325.5,63.6z M324.9,62.4
				C324.9,62.4,324.9,62.4,324.9,62.4c-0.3,0.3-0.7,0.4-1,0.5l0-0.4C324.2,62.4,324.6,62.4,324.9,62.4z M322.5,62.4
				C322.5,62.4,322.5,62.4,322.5,62.4c0.3,0,0.7,0,1.1,0l0,0.4C323.2,62.8,322.8,62.7,322.5,62.4z M322.2,63.7
				c-0.1,0-0.2-0.1-0.3-0.1c0.5,0.1,1.1,0.1,1.6,0.1l0,0.3C323.1,64,322.6,63.9,322.2,63.7z"/>
			<path class="st0" d="M356.1,62.8c0.3,0,0.5-0.1,0.7-0.2c0-0.1,0-0.1-0.1-0.1c-0.1,0-0.2,0-0.3,0c0-0.1,0-0.1-0.1-0.1
				c-0.1,0-0.2,0-0.3,0c-0.1,0-0.1,0.1-0.1,0.1c-0.1,0-0.2,0-0.3,0c-0.1,0-0.1,0.1,0,0.1c0.1,0.1,0.3,0.2,0.6,0.2
				c-0.2,0.1-0.5,0.2-0.7,0.3c-0.3,0.1-0.6,0.1-0.9,0.2c-0.5,0.1-1.1,0.1-1.6,0.1l0-0.1c0.3,0,0.6-0.1,0.9-0.2
				c0.2-0.1,0.3-0.2,0.4-0.3c0,0,0,0,0,0c0,0,0.1,0,0.1,0c0.2-0.1,0.5-0.1,0.7-0.2c0.2-0.1,0.5-0.2,0.6-0.4c0,0,0.1,0,0.1,0
				c0.3,0,0.6-0.1,0.7-0.2c0-0.1,0-0.1-0.1-0.1c-0.1,0-0.2,0-0.3,0c0-0.1,0-0.1-0.1-0.1c-0.1,0-0.2,0-0.3,0c-0.1,0-0.1,0.1-0.1,0.1
				c-0.1,0-0.2,0-0.3,0s-0.1,0.1,0,0.1c0.1,0.1,0.3,0.2,0.5,0.2c-0.2,0.1-0.4,0.2-0.6,0.3c-0.2,0.1-0.4,0.1-0.6,0.2
				c0-0.1,0.1-0.1,0.1-0.2c0,0,0,0,0,0c0.2,0,0.5-0.1,0.6-0.2c0,0,0-0.1-0.1-0.1c-0.1,0-0.2,0-0.3,0c0,0,0-0.1-0.1-0.1
				c-0.1,0-0.2,0-0.3,0c-0.1,0-0.1,0.1-0.1,0.1c-0.1,0-0.2,0-0.3,0c-0.1,0-0.1,0.1,0,0.1c0.1,0.1,0.2,0.2,0.4,0.2
				c-0.1,0.1-0.1,0.2-0.2,0.2c-0.4,0.1-0.9,0.1-1.3,0.1l0-0.2c0.1,0,0.2,0,0.4-0.1c0.1-0.1,0.3-0.2,0.4-0.3c0.1,0,0.1-0.1,0.1-0.2
				c0.1,0,0.2,0,0.3,0c0.2,0,0.4-0.1,0.6-0.2c0.1,0,0.2-0.1,0.3-0.1c0.1,0,0.1-0.1,0.2-0.1c0,0,0.1,0,0.1,0c0.3,0,0.5-0.1,0.6-0.2
				c0,0,0-0.1-0.1-0.1c-0.1,0-0.2,0-0.3,0c0,0,0-0.1-0.1-0.1c-0.1,0-0.2,0-0.3,0c-0.1,0-0.1,0.1-0.1,0.1c-0.1,0-0.2,0-0.3,0
				c-0.1,0-0.1,0.1,0,0.1c0.1,0.1,0.2,0.1,0.3,0.2l0,0l-0.1,0c-0.1,0-0.2,0.1-0.3,0.1c-0.2,0.1-0.4,0.1-0.6,0.1c-0.1,0-0.1,0-0.2,0
				c0.1-0.1,0.1-0.3,0.2-0.4c0,0,0,0,0,0c0.2,0,0.5-0.1,0.6-0.2c0,0,0-0.1-0.1-0.1c-0.1,0-0.2,0-0.3,0c0,0,0-0.1-0.1-0.1
				c-0.1,0-0.2,0-0.3,0c-0.1,0-0.1,0.1-0.1,0.1c-0.1,0-0.2,0-0.3,0c-0.1,0-0.1,0.1,0,0.1c0.1,0.1,0.2,0.2,0.4,0.2
				c-0.1,0.2-0.2,0.3-0.3,0.4c-0.3,0-0.5,0-0.8,0l0-0.4c0.2,0,0.3-0.1,0.4-0.2c0.1-0.1,0.2-0.2,0.3-0.4c0,0,0,0,0,0
				c0.3,0,0.5-0.1,0.6-0.2c0,0,0-0.1-0.1-0.1c-0.1,0-0.2,0-0.3,0c0,0,0-0.1-0.1-0.1c-0.1,0-0.2,0-0.3,0c-0.1,0-0.1,0.1-0.1,0.1
				c-0.1,0-0.2,0-0.3,0c-0.1,0-0.1,0.1,0,0.1c0.1,0.1,0.3,0.2,0.5,0.2c-0.1,0.1-0.2,0.2-0.3,0.3c-0.1,0.1-0.2,0.1-0.4,0.1l0-0.8
				c0.2,0,0.4-0.1,0.5-0.2c0.1,0,0-0.1,0-0.1c-0.1,0-0.2,0-0.3,0c0,0,0-0.1-0.1-0.1c-0.1,0-0.2,0-0.3,0c-0.1,0-0.1,0.1-0.1,0.1
				c-0.1,0-0.2,0-0.3,0s-0.1,0.1-0.1,0.1c0.1,0.1,0.3,0.2,0.5,0.2l0,0.8c-0.1,0-0.3-0.1-0.4-0.1c-0.1-0.1-0.2-0.2-0.3-0.3
				c0.2,0,0.4-0.1,0.5-0.2c0.1,0,0-0.1,0-0.1c-0.1,0-0.2,0-0.3,0c0,0,0-0.1-0.1-0.1c-0.1,0-0.2,0-0.3,0c-0.1,0-0.1,0.1-0.1,0.1
				c-0.1,0-0.2,0-0.3,0c-0.1,0-0.1,0.1-0.1,0.1c0.1,0.1,0.3,0.2,0.6,0.2c0,0,0,0,0,0c0.1,0.2,0.2,0.3,0.3,0.4
				c0.1,0.1,0.3,0.2,0.5,0.2l0,0.4c-0.3,0-0.6,0-0.8,0c-0.1-0.1-0.2-0.3-0.3-0.4c0.2,0,0.4-0.1,0.4-0.2c0,0,0-0.1,0-0.1
				c-0.1,0-0.2,0-0.3,0c0,0,0-0.1-0.1-0.1c-0.1,0-0.2,0-0.3,0c-0.1,0-0.1,0.1-0.1,0.1c-0.1,0-0.2,0-0.3,0c-0.1,0-0.1,0.1-0.1,0.1
				c0.1,0.1,0.3,0.2,0.6,0.2c0,0,0,0,0,0c0,0.1,0.1,0.3,0.2,0.4c-0.1,0-0.1,0-0.2,0c-0.2,0-0.4-0.1-0.6-0.1c-0.1,0-0.2-0.1-0.3-0.1
				l-0.1,0l0,0c0.2,0,0.3-0.1,0.3-0.2c0.1,0,0-0.1,0-0.1c-0.1,0-0.2,0-0.3,0c0,0,0-0.1-0.1-0.1c-0.1,0-0.2,0-0.3,0
				c-0.1,0-0.1,0.1-0.1,0.1c-0.1,0-0.2,0-0.3,0c-0.1,0-0.1,0.1-0.1,0.1c0.1,0.1,0.3,0.2,0.6,0.2c0,0,0.1,0,0.1,0
				c0.1,0.1,0.1,0.1,0.2,0.1c0.1,0.1,0.2,0.1,0.3,0.1c0.2,0.1,0.4,0.1,0.6,0.2c0.1,0,0.2,0,0.3,0c0,0.1,0.1,0.1,0.1,0.2
				c0.1,0.1,0.2,0.2,0.4,0.3c0.1,0.1,0.2,0.1,0.4,0.1l0,0.2c-0.5,0-0.9,0-1.4-0.1c-0.1-0.1-0.1-0.1-0.2-0.2c0.2,0,0.4-0.1,0.4-0.2
				c0,0,0-0.1,0-0.1s-0.2,0-0.3,0c0,0,0-0.1-0.1-0.1c-0.1,0-0.2,0-0.3,0s-0.1,0.1-0.1,0.1c-0.1,0-0.2,0-0.3,0
				c-0.1,0-0.1,0.1-0.1,0.1c0.1,0.1,0.3,0.2,0.6,0.2c0,0,0,0,0,0c0,0.1,0.1,0.1,0.1,0.2c-0.2,0-0.4-0.1-0.6-0.2
				c-0.2-0.1-0.4-0.2-0.6-0.3c0.2,0,0.4-0.1,0.5-0.2c0.1,0,0-0.1,0-0.1s-0.2,0-0.3,0c0-0.1,0-0.1-0.1-0.1c-0.1,0-0.2,0-0.3,0
				c-0.1,0-0.1,0.1-0.1,0.1c-0.1,0-0.2,0-0.3,0c-0.1,0-0.1,0.1-0.1,0.1c0.1,0.1,0.4,0.2,0.7,0.2c0,0,0.1,0,0.1,0
				c0.2,0.2,0.4,0.3,0.6,0.4c0.2,0.1,0.5,0.2,0.7,0.2c0,0,0,0,0.1,0c0,0,0,0,0,0c0.1,0.1,0.3,0.2,0.4,0.3c0.3,0.1,0.6,0.2,0.9,0.2
				l0,0.1c-0.6,0-1.1,0-1.7-0.1c-0.3,0-0.6-0.1-0.9-0.2c-0.2-0.1-0.5-0.2-0.7-0.3c0.3,0,0.5-0.1,0.6-0.2c0.1,0,0-0.1,0-0.1
				c-0.1,0-0.2,0-0.3,0c0-0.1,0-0.1-0.1-0.1c-0.1,0-0.2,0-0.3,0c-0.1,0-0.1,0.1-0.1,0.1c-0.1,0-0.2,0-0.3,0c-0.1,0-0.1,0.1-0.1,0.1
				c0.1,0.1,0.4,0.2,0.7,0.2c0.5,0.3,1.1,0.5,1.7,0.6c0.5,0.1,1,0.1,1.5,0.1c-0.2,0-0.5,0.1-0.7,0.1c-0.3,0.1-0.5,0.1-0.7,0.2
				c0,0-0.1-0.1-0.2-0.1c-0.1,0-0.3,0.1-0.3,0.2c0,0.1,0.1,0.2,0.3,0.2c0.1,0,0.3-0.1,0.3-0.2c0,0,0,0,0,0c0.1,0,0.2,0,0.2-0.1
				c0.2,0,0.3-0.1,0.5-0.1c0.1,0,0.3,0,0.4-0.1c0,0,0,0,0,0c-0.1,0.1-0.3,0.1-0.4,0.2c0,0,0,0-0.1,0c-0.1,0-0.2,0.1-0.2,0.1
				s0.1,0.1,0.2,0.1c0.1,0,0.2-0.1,0.2-0.1c0,0,0-0.1,0-0.1c0.1-0.1,0.2-0.1,0.4-0.2c0.2-0.1,0.3-0.1,0.5-0.1l-0.2,11l0,0.3
				c0.2-0.3,0.4-0.6,0.6-0.9l0-0.3l-0.2-10.1c0.1,0,0.3,0.1,0.4,0.1c0.1,0.1,0.3,0.1,0.4,0.2c0,0,0,0,0,0.1c0,0.1,0.1,0.1,0.2,0.1
				c0.1,0,0.2-0.1,0.2-0.1s-0.1-0.1-0.2-0.1c0,0,0,0-0.1,0c-0.1-0.1-0.3-0.2-0.4-0.3c0,0,0,0,0,0c0.1,0,0.3,0,0.4,0.1
				c0.2,0,0.3,0.1,0.5,0.1c0.1,0,0.2,0,0.2,0.1c0,0,0,0,0,0c0,0.1,0.1,0.2,0.3,0.2c0.1,0,0.3-0.1,0.3-0.2c0-0.1-0.1-0.2-0.3-0.2
				c-0.1,0-0.1,0-0.2,0.1c-0.2-0.1-0.5-0.2-0.7-0.2c-0.2,0-0.5-0.1-0.7-0.1c0.5,0,1-0.1,1.5-0.1C355,63.3,355.6,63.1,356.1,62.8z
				 M353.7,62.9c-0.1,0-0.1,0.1-0.2,0.1c-0.3,0.1-0.5,0.2-0.8,0.2l0-0.2C353.1,62.9,353.4,62.9,353.7,62.9z M353.4,62.1
				C353.4,62.1,353.4,62.1,353.4,62.1c-0.2,0.2-0.4,0.3-0.7,0.3l0-0.3C352.9,62.1,353.2,62.1,353.4,62.1z M351.9,62.1
				C351.9,62.1,351.9,62.1,351.9,62.1c0.2,0,0.4,0,0.7,0l0,0.3C352.3,62.4,352.1,62.3,351.9,62.1z M351.7,62.9
				c-0.1,0-0.1-0.1-0.2-0.1c0.3,0.1,0.7,0.1,1,0.1l0,0.2C352.2,63.1,351.9,63,351.7,62.9z"/>
			<path class="st0" d="M319.6,57.8c0.5,0,1-0.2,1.1-0.4c0-0.1,0-0.2-0.2-0.3c-0.2-0.1-0.4-0.1-0.6,0c0.1-0.1,0-0.2-0.2-0.2
				c-0.2-0.1-0.4-0.1-0.6,0c-0.2,0.1-0.2,0.2-0.2,0.2c-0.2-0.1-0.4,0-0.6,0c-0.2,0.1-0.2,0.2-0.1,0.3c0.2,0.2,0.5,0.3,1,0.4
				c-0.4,0.2-0.8,0.4-1.3,0.5c-0.5,0.1-1,0.3-1.5,0.3c-1,0.2-1.9,0.2-2.9,0.2l0-0.2c0.5,0,1-0.1,1.5-0.4c0.3-0.1,0.5-0.3,0.8-0.5
				c0,0,0,0,0,0c0.1,0,0.1,0,0.2,0c0.4-0.1,0.9-0.2,1.3-0.4c0.4-0.2,0.8-0.4,1.1-0.6c0.1,0,0.1,0,0.2,0c0.5,0,1-0.1,1.2-0.4
				c0-0.1,0-0.2-0.2-0.3c-0.2-0.1-0.4-0.1-0.6,0c0.1-0.1,0-0.2-0.2-0.2c-0.2-0.1-0.4-0.1-0.6,0c-0.2,0.1-0.2,0.2-0.2,0.2
				c-0.2-0.1-0.4,0-0.6,0c-0.2,0.1-0.2,0.2-0.1,0.3c0.2,0.2,0.5,0.3,0.9,0.4c-0.3,0.2-0.7,0.3-1,0.5c-0.3,0.1-0.7,0.2-1.1,0.3
				c0.1-0.1,0.2-0.2,0.2-0.3c0,0,0.1,0,0.1,0c0.4,0,0.8-0.1,1-0.3c0-0.1,0-0.2-0.2-0.2c-0.1,0-0.3-0.1-0.5,0c0-0.1,0-0.2-0.2-0.2
				c-0.1,0-0.3,0-0.5,0c-0.1,0-0.2,0.1-0.2,0.2c-0.1,0-0.3,0-0.5,0s-0.2,0.1-0.1,0.2c0.1,0.2,0.4,0.3,0.8,0.3
				c-0.1,0.1-0.2,0.3-0.4,0.4c-0.8,0.1-1.5,0.2-2.3,0.2l0-0.4c0.2,0,0.4-0.1,0.6-0.2c0.3-0.1,0.5-0.3,0.7-0.5
				c0.1-0.1,0.2-0.2,0.2-0.3c0.2,0,0.4,0,0.6-0.1c0.4-0.1,0.8-0.1,1.1-0.3c0.2-0.1,0.4-0.1,0.5-0.2c0.1-0.1,0.2-0.1,0.3-0.2
				c0.1,0,0.2,0,0.2,0c0.4,0,0.9-0.1,1-0.3c0-0.1,0-0.2-0.2-0.2c-0.1-0.1-0.3-0.1-0.5,0c0-0.1,0-0.2-0.2-0.2c-0.1,0-0.3,0-0.5,0
				c-0.1,0-0.2,0.1-0.2,0.2c-0.1,0-0.3,0-0.5,0c-0.1,0.1-0.2,0.1-0.1,0.2c0.1,0.1,0.3,0.2,0.6,0.3l-0.1,0l-0.1,0.1
				c-0.2,0.1-0.3,0.1-0.5,0.2c-0.4,0.1-0.7,0.2-1.1,0.2c-0.1,0-0.2,0-0.3,0c0.1-0.2,0.2-0.5,0.3-0.7c0,0,0,0,0.1,0
				c0.4,0,0.8-0.1,1-0.3c0-0.1,0-0.2-0.2-0.2c-0.1,0-0.3-0.1-0.5,0c0-0.1,0-0.2-0.2-0.2c-0.1,0-0.3,0-0.5,0c-0.1,0-0.2,0.1-0.2,0.2
				c-0.1,0-0.3,0-0.5,0c-0.1,0.1-0.2,0.1-0.1,0.2c0.1,0.2,0.4,0.3,0.8,0.3c-0.1,0.3-0.3,0.5-0.4,0.7c-0.5,0-1,0.1-1.4,0.1l0-0.6
				c0.3,0,0.5-0.1,0.8-0.3c0.2-0.2,0.4-0.4,0.5-0.7c0,0,0,0,0,0c0.4,0,0.9-0.1,1-0.3c0-0.1,0-0.2-0.2-0.2c-0.1-0.1-0.3-0.1-0.5,0
				c0-0.1,0-0.2-0.2-0.2c-0.1,0-0.3,0-0.5,0c-0.1,0-0.2,0.1-0.2,0.2c-0.1,0-0.3,0-0.5,0c-0.1,0.1-0.2,0.1-0.1,0.2
				c0.1,0.2,0.5,0.3,0.9,0.3c-0.1,0.2-0.3,0.4-0.5,0.5c-0.2,0.1-0.4,0.2-0.6,0.2l0-1.5c0.4,0,0.7-0.1,0.9-0.3
				c0.1-0.1,0.1-0.2-0.1-0.2c-0.1-0.1-0.3-0.1-0.5,0c0-0.1,0-0.2-0.2-0.2c-0.1,0-0.3,0-0.5,0c-0.1,0-0.2,0.1-0.2,0.2
				c-0.2,0-0.4,0-0.5,0c-0.1,0.1-0.2,0.1-0.2,0.2c0.2,0.2,0.5,0.3,1,0.3l0,1.5c-0.2,0-0.5-0.1-0.7-0.2c-0.2-0.1-0.4-0.3-0.5-0.5
				c0.4,0,0.7-0.1,0.9-0.3c0.1-0.1,0.1-0.2-0.1-0.2c-0.1-0.1-0.3-0.1-0.5,0c0-0.1,0-0.2-0.2-0.2c-0.1,0-0.3,0-0.5,0
				c-0.1,0-0.2,0.1-0.2,0.2c-0.2,0-0.4,0-0.5,0c-0.1,0.1-0.2,0.1-0.2,0.2c0.2,0.2,0.6,0.3,1,0.3c0,0,0,0,0,0
				c0.1,0.3,0.3,0.5,0.5,0.7c0.2,0.2,0.5,0.3,0.8,0.3l0,0.6c-0.5,0-1,0-1.5-0.1c-0.2-0.2-0.3-0.5-0.4-0.7c0.3,0,0.6-0.1,0.8-0.3
				c0.1-0.1,0.1-0.2-0.1-0.2c-0.1-0.1-0.3-0.1-0.5,0c0-0.1,0-0.2-0.2-0.2c-0.1,0-0.3,0-0.5,0c-0.1,0-0.2,0.1-0.2,0.2
				c-0.2,0-0.3,0-0.5,0c-0.1,0-0.2,0.1-0.2,0.2c0.2,0.2,0.5,0.3,1,0.3c0,0,0,0,0.1,0c0.1,0.2,0.2,0.5,0.3,0.7c-0.1,0-0.2,0-0.3,0
				c-0.4,0-0.7-0.1-1.1-0.2c-0.2,0-0.4-0.1-0.5-0.2l-0.1-0.1l-0.1,0c0.3-0.1,0.5-0.1,0.6-0.3c0.1-0.1,0.1-0.2-0.1-0.2
				c-0.1-0.1-0.3-0.1-0.5,0c0-0.1,0-0.2-0.2-0.2c-0.1,0-0.3,0-0.5,0c-0.1,0-0.2,0.1-0.2,0.2c-0.2,0-0.4,0-0.5,0
				c-0.1,0.1-0.2,0.1-0.2,0.2c0.2,0.2,0.6,0.3,1,0.3c0.1,0,0.2,0,0.2,0c0.1,0.1,0.2,0.2,0.3,0.2c0.2,0.1,0.4,0.2,0.5,0.2
				c0.4,0.1,0.7,0.2,1.1,0.3c0.2,0,0.4,0.1,0.6,0.1c0.1,0.1,0.2,0.2,0.2,0.3c0.2,0.2,0.4,0.3,0.7,0.5c0.2,0.1,0.4,0.1,0.7,0.2l0,0.4
				c-0.8,0-1.6-0.1-2.4-0.2c-0.1-0.1-0.3-0.2-0.4-0.4c0.3,0,0.6-0.1,0.8-0.3c0.1-0.1,0.1-0.2-0.1-0.2c-0.1-0.1-0.3-0.1-0.5,0
				c0-0.1,0-0.2-0.2-0.2c-0.1,0-0.3,0-0.5,0c-0.1,0-0.2,0.1-0.2,0.2c-0.2,0-0.3,0-0.5,0c-0.1,0-0.2,0.1-0.2,0.2
				c0.2,0.2,0.5,0.3,1,0.3c0,0,0.1,0,0.1,0c0.1,0.1,0.1,0.2,0.2,0.3c-0.3-0.1-0.7-0.2-1-0.3c-0.4-0.1-0.7-0.3-1-0.5
				c0.4-0.1,0.7-0.2,0.8-0.3c0.1-0.1,0.1-0.2-0.1-0.3c-0.2-0.1-0.4-0.1-0.6,0c0.1-0.1,0-0.2-0.2-0.2c-0.2-0.1-0.4-0.1-0.6,0
				c-0.2,0.1-0.2,0.2-0.2,0.2c-0.2,0-0.4,0-0.6,0c-0.2,0.1-0.2,0.2-0.2,0.3c0.2,0.2,0.7,0.4,1.2,0.4c0.1,0,0.1,0,0.2,0
				c0.3,0.3,0.7,0.5,1.1,0.6c0.4,0.2,0.8,0.3,1.3,0.4c0,0,0.1,0,0.1,0c0,0,0,0,0,0c0.2,0.2,0.5,0.4,0.8,0.5c0.5,0.2,1,0.3,1.6,0.4
				l0,0.2c-1,0-2-0.1-2.9-0.2c-0.5-0.1-1-0.2-1.5-0.3c-0.4-0.1-0.9-0.3-1.3-0.5c0.4,0,0.8-0.2,1-0.4c0.1-0.1,0.1-0.2-0.1-0.3
				c-0.2-0.1-0.4-0.1-0.6,0c0.1-0.1,0-0.2-0.2-0.2c-0.2-0.1-0.4-0.1-0.6,0c-0.2,0.1-0.2,0.2-0.2,0.2c-0.2,0-0.4,0-0.6,0
				c-0.2,0.1-0.2,0.2-0.2,0.3c0.2,0.2,0.6,0.4,1.1,0.4c0.9,0.6,1.9,0.8,3,1c0.9,0.2,1.8,0.2,2.6,0.3c-0.4,0-0.8,0.1-1.2,0.2
				c-0.4,0.1-0.9,0.2-1.3,0.4c-0.1-0.1-0.2-0.1-0.3-0.1c-0.3,0-0.5,0.1-0.5,0.3c0,0.2,0.2,0.3,0.5,0.3s0.5-0.1,0.5-0.3
				c0,0,0-0.1,0-0.1c0.1,0,0.3-0.1,0.4-0.1c0.3-0.1,0.6-0.1,0.8-0.2c0.2,0,0.5-0.1,0.7-0.1c0,0-0.1,0-0.1,0
				c-0.3,0.1-0.5,0.3-0.7,0.4c0,0-0.1,0-0.1,0c-0.2,0-0.3,0.1-0.3,0.2c0,0.1,0.1,0.2,0.3,0.2c0.2,0,0.3-0.1,0.3-0.2
				c0-0.1,0-0.1-0.1-0.1c0.2-0.1,0.4-0.3,0.7-0.3c0.3-0.1,0.5-0.2,0.8-0.2l-0.3,16l0,0.4c0.3,0.4,0.7,0.8,1,1.2l0-0.4l-0.2-9.2
				l0-0.5l-0.1-7.5c0.3,0.1,0.5,0.1,0.8,0.2c0.2,0.1,0.5,0.2,0.7,0.3c0,0-0.1,0.1-0.1,0.1c0,0.1,0.1,0.2,0.3,0.2
				c0.2,0,0.3-0.1,0.3-0.2c0-0.1-0.1-0.2-0.3-0.2c0,0-0.1,0-0.1,0c-0.2-0.2-0.5-0.3-0.7-0.4c0,0-0.1,0-0.1,0c0.2,0,0.5,0.1,0.7,0.1
				c0.3,0,0.6,0.1,0.8,0.2c0.1,0,0.3,0.1,0.4,0.1c0,0,0,0.1,0,0.1c0,0.2,0.2,0.3,0.5,0.3c0.3,0,0.5-0.1,0.5-0.3
				c0-0.2-0.2-0.3-0.5-0.3c-0.1,0-0.3,0-0.3,0.1c-0.4-0.2-0.9-0.3-1.3-0.4c-0.4-0.1-0.8-0.1-1.2-0.2c0.9,0,1.8-0.1,2.6-0.3
				C317.7,58.6,318.7,58.3,319.6,57.8z M311.9,58c-0.1,0-0.2-0.1-0.3-0.1c0.6,0.1,1.2,0.1,1.8,0.1l0,0.3
				C312.8,58.3,312.3,58.2,311.9,58z M313.4,57c-0.4,0-0.8-0.2-1.2-0.5c0,0,0,0,0,0c0.4,0,0.8,0.1,1.2,0.1L313.4,57z M313.7,56.6
				c0.4,0,0.8,0,1.2-0.1c0,0,0,0,0,0c-0.3,0.3-0.7,0.5-1.1,0.5L313.7,56.6z M313.7,58c0.6,0,1.2-0.1,1.7-0.1
				c-0.1,0.1-0.2,0.1-0.3,0.1c-0.5,0.2-0.9,0.3-1.4,0.3L313.7,58z"/>
			<path class="st0" d="M321.4,70.2c0.2,0,0.5-0.1,0.5-0.2c0,0,0-0.1-0.1-0.1c-0.1,0-0.2,0-0.3,0c0,0,0-0.1-0.1-0.1
				c-0.1,0-0.2,0-0.3,0c-0.1,0-0.1,0.1-0.1,0.1c-0.1,0-0.2,0-0.3,0c-0.1,0-0.1,0.1,0,0.1c0.1,0.1,0.3,0.2,0.5,0.2
				c-0.2,0.1-0.4,0.2-0.6,0.2c-0.2,0.1-0.5,0.1-0.7,0.2c-0.5,0.1-0.9,0.1-1.4,0.1l0-0.1c0.3,0,0.5-0.1,0.7-0.2
				c0.1-0.1,0.3-0.1,0.4-0.2c0,0,0,0,0,0c0,0,0.1,0,0.1,0c0.2,0,0.4-0.1,0.6-0.2c0.2-0.1,0.4-0.2,0.5-0.3c0,0,0.1,0,0.1,0
				c0.3,0,0.5-0.1,0.6-0.2c0,0,0-0.1-0.1-0.1c-0.1,0-0.2,0-0.3,0c0,0,0-0.1-0.1-0.1c-0.1,0-0.2,0-0.3,0c-0.1,0-0.1,0.1-0.1,0.1
				c-0.1,0-0.2,0-0.3,0c-0.1,0-0.1,0.1,0,0.1c0.1,0.1,0.2,0.1,0.4,0.2c-0.2,0.1-0.3,0.2-0.5,0.2c-0.2,0.1-0.3,0.1-0.5,0.1
				c0,0,0.1-0.1,0.1-0.2c0,0,0,0,0,0c0.2,0,0.4-0.1,0.5-0.1c0,0,0-0.1-0.1-0.1c-0.1,0-0.2,0-0.2,0c0,0,0-0.1-0.1-0.1
				c-0.1,0-0.2,0-0.2,0c-0.1,0-0.1,0.1-0.1,0.1c-0.1,0-0.2,0-0.2,0c-0.1,0-0.1,0.1,0,0.1c0.1,0.1,0.2,0.1,0.4,0.1
				c-0.1,0.1-0.1,0.1-0.2,0.2c-0.4,0.1-0.7,0.1-1.1,0.1l0-0.2c0.1,0,0.2,0,0.3-0.1c0.1-0.1,0.2-0.1,0.3-0.2c0,0,0.1-0.1,0.1-0.1
				c0.1,0,0.2,0,0.3,0c0.2,0,0.4-0.1,0.5-0.1c0.1,0,0.2-0.1,0.3-0.1c0.1,0,0.1-0.1,0.1-0.1c0,0,0.1,0,0.1,0c0.2,0,0.4-0.1,0.5-0.2
				c0,0,0-0.1-0.1-0.1c-0.1,0-0.2,0-0.2,0c0,0,0-0.1-0.1-0.1c-0.1,0-0.2,0-0.2,0c-0.1,0-0.1,0.1-0.1,0.1c-0.1,0-0.2,0-0.2,0
				s-0.1,0.1,0,0.1c0.1,0.1,0.2,0.1,0.3,0.1l0,0l-0.1,0c-0.1,0-0.2,0.1-0.3,0.1c-0.2,0-0.4,0.1-0.5,0.1c-0.1,0-0.1,0-0.2,0
				c0.1-0.1,0.1-0.2,0.1-0.3c0,0,0,0,0,0c0.2,0,0.4-0.1,0.5-0.1c0,0,0-0.1-0.1-0.1c-0.1,0-0.2,0-0.2,0c0,0,0-0.1-0.1-0.1
				c-0.1,0-0.2,0-0.2,0c-0.1,0-0.1,0.1-0.1,0.1c-0.1,0-0.2,0-0.2,0c-0.1,0-0.1,0.1,0,0.1c0.1,0.1,0.2,0.1,0.4,0.1
				c-0.1,0.1-0.1,0.2-0.2,0.4c-0.2,0-0.5,0-0.7,0l0-0.3c0.1,0,0.3-0.1,0.4-0.1c0.1-0.1,0.2-0.2,0.2-0.3c0,0,0,0,0,0
				c0.2,0,0.4-0.1,0.5-0.2c0,0,0-0.1-0.1-0.1c-0.1,0-0.2,0-0.2,0c0,0,0-0.1-0.1-0.1c-0.1,0-0.2,0-0.2,0c-0.1,0-0.1,0.1-0.1,0.1
				c-0.1,0-0.2,0-0.2,0c-0.1,0-0.1,0.1,0,0.1c0.1,0.1,0.2,0.1,0.4,0.2c-0.1,0.1-0.1,0.2-0.2,0.3c-0.1,0.1-0.2,0.1-0.3,0.1l0-0.7
				c0.2,0,0.3-0.1,0.4-0.1c0,0,0-0.1,0-0.1c-0.1,0-0.2,0-0.2,0c0,0,0-0.1-0.1-0.1c-0.1,0-0.2,0-0.2,0c-0.1,0-0.1,0.1-0.1,0.1
				c-0.1,0-0.2,0-0.2,0c-0.1,0-0.1,0.1-0.1,0.1c0.1,0.1,0.3,0.1,0.5,0.2l0,0.7c-0.1,0-0.2,0-0.3-0.1c-0.1-0.1-0.2-0.2-0.2-0.3
				c0.2,0,0.4-0.1,0.4-0.2c0,0,0-0.1,0-0.1c-0.1,0-0.2,0-0.2,0c0,0,0-0.1-0.1-0.1c-0.1,0-0.2,0-0.2,0c-0.1,0-0.1,0.1-0.1,0.1
				c-0.1,0-0.2,0-0.2,0c-0.1,0-0.1,0.1-0.1,0.1c0.1,0.1,0.3,0.2,0.5,0.2c0,0,0,0,0,0c0,0.1,0.1,0.3,0.2,0.3c0.1,0.1,0.2,0.1,0.4,0.1
				l0,0.3c-0.2,0-0.5,0-0.7,0c-0.1-0.1-0.2-0.2-0.2-0.4c0.2,0,0.3-0.1,0.4-0.1c0,0,0-0.1,0-0.1c-0.1,0-0.2,0-0.2,0
				c0,0,0-0.1-0.1-0.1c-0.1,0-0.2,0-0.2,0c-0.1,0-0.1,0.1-0.1,0.1c-0.1,0-0.2,0-0.2,0c-0.1,0-0.1,0.1-0.1,0.1
				c0.1,0.1,0.3,0.1,0.5,0.1c0,0,0,0,0,0c0,0.1,0.1,0.2,0.1,0.3c-0.1,0-0.1,0-0.2,0c-0.2,0-0.4-0.1-0.5-0.1c-0.1,0-0.2-0.1-0.3-0.1
				l-0.1,0l0,0c0.1,0,0.2-0.1,0.3-0.1c0,0,0-0.1,0-0.1s-0.2,0-0.2,0c0,0,0-0.1-0.1-0.1c-0.1,0-0.2,0-0.2,0c-0.1,0-0.1,0.1-0.1,0.1
				c-0.1,0-0.2,0-0.2,0c-0.1,0-0.1,0.1-0.1,0.1c0.1,0.1,0.3,0.2,0.5,0.2c0,0,0.1,0,0.1,0c0,0,0.1,0.1,0.1,0.1c0.1,0,0.2,0.1,0.3,0.1
				c0.2,0.1,0.4,0.1,0.5,0.1c0.1,0,0.2,0,0.3,0c0,0,0.1,0.1,0.1,0.1c0.1,0.1,0.2,0.2,0.3,0.2c0.1,0,0.2,0.1,0.3,0.1l0,0.2
				c-0.4,0-0.8,0-1.1-0.1c-0.1-0.1-0.1-0.1-0.2-0.2c0.2,0,0.3-0.1,0.4-0.1c0,0,0-0.1,0-0.1c-0.1,0-0.2,0-0.2,0c0,0,0-0.1-0.1-0.1
				c-0.1,0-0.2,0-0.2,0c-0.1,0-0.1,0.1-0.1,0.1c-0.1,0-0.2,0-0.2,0c-0.1,0-0.1,0.1-0.1,0.1c0.1,0.1,0.3,0.1,0.5,0.1c0,0,0,0,0,0
				c0,0.1,0.1,0.1,0.1,0.2c-0.2,0-0.3-0.1-0.5-0.1c-0.2-0.1-0.3-0.1-0.5-0.2c0.2,0,0.3-0.1,0.4-0.2c0.1,0,0-0.1,0-0.1
				c-0.1,0-0.2,0-0.3,0c0,0,0-0.1-0.1-0.1c-0.1,0-0.2,0-0.3,0c-0.1,0-0.1,0.1-0.1,0.1c-0.1,0-0.2,0-0.3,0c-0.1,0-0.1,0.1-0.1,0.1
				c0.1,0.1,0.3,0.2,0.6,0.2c0,0,0.1,0,0.1,0c0.2,0.1,0.3,0.2,0.5,0.3c0.2,0.1,0.4,0.1,0.6,0.2c0,0,0,0,0,0c0,0,0,0,0,0
				c0.1,0.1,0.2,0.2,0.4,0.2c0.2,0.1,0.5,0.2,0.8,0.2l0,0.1c-0.5,0-0.9,0-1.4-0.1c-0.2,0-0.5-0.1-0.7-0.2c-0.2-0.1-0.4-0.1-0.6-0.2
				c0.2,0,0.4-0.1,0.5-0.2c0.1,0,0-0.1,0-0.1c-0.1,0-0.2,0-0.3,0c0,0,0-0.1-0.1-0.1c-0.1,0-0.2,0-0.3,0c0,0-0.1,0-0.1,0
				c0,0,0,0,0,0.1c-0.1,0-0.2,0-0.3,0c-0.1,0-0.1,0.1-0.1,0.1c0.1,0.1,0.2,0.1,0.4,0.2c0,0,0.1,0,0.1,0c0.4,0.3,0.9,0.4,1.4,0.5
				c0.4,0.1,0.8,0.1,1.3,0.1c-0.2,0-0.4,0-0.6,0.1c-0.2,0-0.4,0.1-0.6,0.2c0,0-0.1-0.1-0.2-0.1c-0.1,0-0.2,0.1-0.2,0.1
				c0,0.1,0.1,0.1,0.2,0.1c0.1,0,0.2-0.1,0.2-0.1c0,0,0,0,0,0c0.1,0,0.1,0,0.2-0.1c0.1,0,0.3-0.1,0.4-0.1c0.1,0,0.2,0,0.3,0
				c0,0,0,0,0,0c-0.1,0.1-0.2,0.1-0.3,0.2c0,0,0,0-0.1,0c-0.1,0-0.2,0-0.2,0.1c0,0.1,0.1,0.1,0.2,0.1c0.1,0,0.2,0,0.2-0.1
				c0,0,0,0,0-0.1c0.1-0.1,0.2-0.1,0.3-0.2c0.1,0,0.3-0.1,0.4-0.1l-0.2,9.3l0,0.2c0.2,0.2,0.4,0.3,0.5,0.5l0-0.2l-0.2-9.7
				c0.1,0,0.2,0.1,0.4,0.1c0.1,0,0.2,0.1,0.3,0.2c0,0,0,0,0,0.1c0,0.1,0.1,0.1,0.2,0.1c0.1,0,0.2,0,0.2-0.1c0-0.1-0.1-0.1-0.2-0.1
				c0,0,0,0-0.1,0c-0.1-0.1-0.2-0.2-0.3-0.2c0,0,0,0,0,0c0.1,0,0.2,0,0.3,0c0.1,0,0.3,0,0.4,0.1c0.1,0,0.1,0,0.2,0.1c0,0,0,0,0,0
				c0,0.1,0.1,0.1,0.2,0.1c0.1,0,0.2-0.1,0.2-0.1c0-0.1-0.1-0.1-0.2-0.1c-0.1,0-0.1,0-0.2,0.1c-0.2-0.1-0.4-0.1-0.6-0.2
				c-0.2,0-0.4-0.1-0.6-0.1c0.4,0,0.8,0,1.3-0.1C320.5,70.6,321,70.4,321.4,70.2z M319.4,70.2c0,0-0.1,0-0.1,0.1
				c-0.2,0.1-0.4,0.1-0.7,0.1l0-0.1C318.9,70.3,319.1,70.3,319.4,70.2z M319.1,69.6C319.1,69.6,319.1,69.6,319.1,69.6
				c-0.2,0.1-0.4,0.2-0.5,0.3l0-0.2C318.8,69.6,318.9,69.6,319.1,69.6z M317.9,69.6C317.9,69.6,317.8,69.6,317.9,69.6
				c0.2,0,0.4,0,0.6,0l0,0.2C318.2,69.8,318,69.7,317.9,69.6z M317.7,70.3c-0.1,0-0.1,0-0.2-0.1c0.3,0,0.6,0.1,0.9,0.1l0,0.1
				C318.2,70.4,317.9,70.4,317.7,70.3z"/>
		</g>
		<linearGradient id="SVGID_1_" gradientUnits="userSpaceOnUse" x1="271.0633" y1="33.211" x2="308.6177" y2="33.211">
			<stop  offset="0" style="stop-color:#B17F49"/>
			<stop  offset="0.6425" style="stop-color:#683B11"/>
		</linearGradient>
		<path class="st2" d="M307.9,48.6c0,0-4.3-0.2-5.3-1.2c0,0,3.8,0.6,6,0c0,0-4.8-0.4-8.7-3.7c-3.9-3.3-5.8-5.3-5.8-5.3
			s1.4-0.6,1.8-0.3c0,0,0-1.3-1.3-1.5c-1.3-0.2-1.4-0.2-1.4-0.2s-0.7,1.7,0.2,2.2c0.1,0.1,0.8,0.2-0.1,0.6c-0.8,0.3-1.6-1.3-1.3-3.2
			c0,0-2.3-1.1-2.6-1.3c0,0-2.5-1.4-5.2-5.9c-0.3-0.5-0.6-1.1-0.9-1.7c-3-5.8-5-9.7-5.4-11.8c0,0-1,0.3,1.4,6.3c0,0-3.4-4.5-4.6-7
			c0,0-1.3,1,3.8,7.4c0,0-3.6-2.6-6.1-5.5c0,0-1.5,0.5,5.1,6.3c0,0-3.6-1.7-6.3-4.1c0,0-0.7,1.8,5.9,4.8c0,0-1.8,0.2-4.3-0.5
			c0,0,0.7,1.1,2.8,1.4c0,0,0.3,2.2,1.3,5.2c0.4,1.3,1,2.7,1.8,4.1c1,2,2.4,4,4.2,5.7c0,0-1.7,1.2-5.7,1.2c-0.6,0.2,1.3,4.5,2.2,5.5
			c0.9,1,5.1,1.2,6.1-0.1c1.1-1.5,1.8-3.6,1.8-3.6s0.7,1.5,2.8,3.2c1.7,1.3,4.2,2.7,7.9,3.4c0,0,0.6,2.1,3.2,3.3
			c0,0-1.8-1.9-2.1-3.1c0,0,1.6,2.1,4.4,3c0,0-1.7-1.5-2.8-3.2c0,0,2.2,1.9,5.1,1.6c0,0-3.6-1.1-4.3-2.2
			C301.4,48.2,304.1,49.4,307.9,48.6z"/>
		
			<linearGradient id="SVGID_00000075123814135112597330000011935862358612404651_" gradientUnits="userSpaceOnUse" x1="269.6505" y1="112.4926" x2="341.1437" y2="-4.919">
			<stop  offset="0" style="stop-color:#009EE2"/>
			<stop  offset="4.755492e-02" style="stop-color:#079BDC"/>
			<stop  offset="0.1178" style="stop-color:#1B91CC"/>
			<stop  offset="0.2021" style="stop-color:#3C82B2"/>
			<stop  offset="0.2972" style="stop-color:#696D8D"/>
			<stop  offset="0.4012" style="stop-color:#A3525F"/>
			<stop  offset="0.5053" style="stop-color:#E5332A"/>
			<stop  offset="0.5067" style="stop-color:#E5342A"/>
			<stop  offset="0.5863" style="stop-color:#CC5E27"/>
			<stop  offset="0.6673" style="stop-color:#B78224"/>
			<stop  offset="0.7487" style="stop-color:#A79D22"/>
			<stop  offset="0.8308" style="stop-color:#9CB020"/>
			<stop  offset="0.914" style="stop-color:#95BC1F"/>
			<stop  offset="1" style="stop-color:#93C01F"/>
		</linearGradient>
		<path style="fill:url(#SVGID_00000075123814135112597330000011935862358612404651_);" d="M332.7,24.3c-8,0-15.6,2.6-21.8,7.4
			l5-26.5h17.2c1.4,0,2.5-1.1,2.5-2.5c0-1.4-1.1-2.5-2.5-2.5h-19.3c-1.2,0-2.3,0.9-2.5,2.1l-6.8,36.3c-0.2,0.9,0.1,1.9,0.9,2.5
			c0.7,0.6,1.6,0.7,2.5,0.4c0.5-0.2,0.9-0.5,1.2-0.9c5.9-7.1,14.5-11.2,23.7-11.2c17,0,30.8,13.8,30.8,30.8
			c0,17-13.8,30.8-30.8,30.8c-12.4,0-23.5-7.4-28.4-18.7c0-0.1-0.1-0.2-0.2-0.3c-5.1-13.6-18.3-23.4-33.6-23.4
			c-8,0-15.6,2.6-21.8,7.4l5-26.5h12.6c1.4,0,2.5-1.1,2.5-2.5c0-1.4-1.1-2.5-2.5-2.5h-14.7c-1.2,0-2.3,0.9-2.5,2.1l-6.8,36.4
			c-0.1,0.3-0.1,0.5,0,0.8c0.1,0.7,0.4,1.3,0.9,1.7c0.7,0.6,1.6,0.7,2.5,0.4c0.5-0.2,0.9-0.5,1.2-0.9c5.9-7.1,14.5-11.2,23.8-11.2
			c17,0,30.8,13.8,30.8,30.8s-13.8,30.8-30.8,30.8c-17,0-30.8-13.8-30.8-30.8c0-1.4-1.1-2.5-2.5-2.5c-1.4,0-2.5,1.1-2.5,2.5
			c0,19.8,16.1,35.9,35.9,35.9c19.7,0,35.8-16,35.9-35.7c6.7,7.2,16.1,11.4,26.3,11.4c19.8,0,35.9-16.1,35.9-35.9
			S352.5,24.3,332.7,24.3z"/>
		<g>
			
				<linearGradient id="SVGID_00000059284497427099150730000002142792061453381560_" gradientUnits="userSpaceOnUse" x1="3596.0825" y1="62.9578" x2="3586.5637" y2="98.5774" gradientTransform="matrix(-1 0 0 1 3860.5493 0)">
				<stop  offset="0" style="stop-color:#00815B"/>
				<stop  offset="0.136" style="stop-color:#038362"/>
				<stop  offset="0.3367" style="stop-color:#0B8976"/>
				<stop  offset="0.5774" style="stop-color:#189296"/>
				<stop  offset="0.8469" style="stop-color:#2AA0C3"/>
				<stop  offset="1" style="stop-color:#35A8E0"/>
			</linearGradient>
			<path style="fill:url(#SVGID_00000059284497427099150730000002142792061453381560_);" d="M246.4,85.2c3.2,2,7.2,2,10.4,0l3.1-1.9
				c0.6-0.4,1.4-0.4,2,0l3.1,1.9c1.1,0.7,2.3,1.1,3.5,1.3c0.9-1.4,1.4-4.9-3.1-4.9c-1.5-0.1-2.9-0.1-4.4-0.2
				c-0.9-0.1-1.7-0.2-2.6-0.4c-1.5-0.4-2.8-1-4.1-1.8c-0.7-0.4-1.3-0.9-1.9-1.4c-0.6-0.5-1.2-1.1-1.7-1.7c-0.4-0.4-0.8-0.9-1.1-1.4
				c-0.3-0.4-0.5-0.8-0.7-1.2c-0.1-0.2-0.1-0.4-0.1-0.6c0-0.2,0.1-0.3,0.4-0.3c0.1,0,0.3,0.1,0.4,0.1c1.1,0.5,2.3,0.8,3.5,0.8
				c0.1,0,0.9-0.1,1-0.1c0.4-0.1,0.7-0.1,1.1-0.2c0.5-0.1,0.9-0.3,1.4-0.4c0.8-0.3,1.7-0.6,2.5-0.8c0.7-0.1,1.5-0.2,2.2-0.1
				c0.9,0.1,1.7,0.5,2.5,0.9c0.4,0.2,0.8,0.5,1.3,0.6c0.5,0.2,1,0,1.3-0.5c0.2-0.3,0.2-0.7,0.3-1.1c0.1-0.6,0.1-1.1,0.3-1.7
				c0.4-1.5,1.3-2.7,2.5-3.6c0.7-0.6,1.5-1,2.3-1.6c0.7-0.5,1.4-1.1,1.9-1.7c0.7-0.9,1.2-2,1.5-3.1c0-0.2,0.1-0.4,0.2-0.6
				c0.1-0.2,0.2-0.2,0.4-0.1c0.1,0.1,0.2,0.1,0.2,0.2c0.2,0.3,0.4,0.6,0.5,0.9c0.1,0.4,0.3,0.7,0.4,1.1c0.2,0.6,0.3,1.2,0.4,1.8
				c0.1,0.6,0.2,1.2,0.2,1.8c0,0.6,0.1,1.1,0,1.7c-0.1,1.6-0.4,3.1-0.9,4.6c-0.1,0.2-0.3,0.8-0.4,0.9c-0.4,0.8-0.8,1.6-1.3,2.3
				c-0.8,1.3-1.8,2.5-2.6,3.8c-0.3,0.5-0.6,1-0.9,1.6c-0.4,1.1-0.1,1.5,0.1,1.8c0.4,0.6,2.4,1.6,3.9,3.2c0,0,0.1,0,0.1,0l3.1-1.9
				c0.6-0.4,1.4-0.4,2,0l3.1,1.9c3.2,2,7.2,2,10.4,0l1.8-1.1c0,0.2,0,0.3,0,0.5c0,1.1-0.1,2.1-0.2,3.1c-4.6,2.4-10.3,2.2-14.8-0.6
				l-0.3-0.2c-0.6-0.4-1.4-0.4-2,0l-1.3,0.8c-4.2,2.7-9.7,2.7-13.9,0l-1.3-0.8c-0.6-0.4-1.4-0.4-2,0l-1.3,0.8c-2.1,1.3-4.5,2-6.9,2
				c-2,0-4-0.5-5.9-1.4c-0.2-1.2-0.3-2.4-0.3-3.6L246.4,85.2z"/>
			
				<linearGradient id="SVGID_00000118362198106530101720000000746045335614468227_" gradientUnits="userSpaceOnUse" x1="3597.5732" y1="63.3562" x2="3588.0542" y2="98.9757" gradientTransform="matrix(-1 0 0 1 3860.5493 0)">
				<stop  offset="0" style="stop-color:#00815B"/>
				<stop  offset="0.136" style="stop-color:#038362"/>
				<stop  offset="0.3367" style="stop-color:#0B8976"/>
				<stop  offset="0.5774" style="stop-color:#189296"/>
				<stop  offset="0.8469" style="stop-color:#2AA0C3"/>
				<stop  offset="1" style="stop-color:#35A8E0"/>
			</linearGradient>
			<path style="fill:url(#SVGID_00000118362198106530101720000000746045335614468227_);" d="M256.9,92.1l3.2-2
				c0.3-0.2,0.8-0.2,1.1,0l3.2,2c3.3,2.1,7.6,2.1,11,0l3.2-2c0.3-0.2,0.8-0.2,1.1,0l3.2,2c3.3,2.1,7.6,2.1,11,0l0.5-0.3
				c0.1,0,0.1-0.1,0.2-0.1c-0.3,1-0.6,1.9-1,2.8c-3.8,1.7-8.2,1.4-11.7-0.8l-2.1-1.3c-0.3-0.2-0.8-0.2-1.1,0l-2.1,1.3
				c-4,2.5-9.2,2.5-13.3,0l-2.1-1.3c-0.3-0.2-0.8-0.2-1.1,0l-2.1,1.3c-2,1.3-4.3,1.9-6.6,1.9c-1.2,0-2.5-0.2-3.6-0.5
				c-0.4-0.8-0.7-1.7-1-2.5C249.9,94.2,253.8,94,256.9,92.1z"/>
			
				<linearGradient id="SVGID_00000166652324581209502490000004228764355608505014_" gradientUnits="userSpaceOnUse" x1="3599.4485" y1="63.8574" x2="3589.9294" y2="99.4769" gradientTransform="matrix(-1 0 0 1 3860.5493 0)">
				<stop  offset="0" style="stop-color:#00815B"/>
				<stop  offset="0.136" style="stop-color:#038362"/>
				<stop  offset="0.3367" style="stop-color:#0B8976"/>
				<stop  offset="0.5774" style="stop-color:#189296"/>
				<stop  offset="0.8469" style="stop-color:#2AA0C3"/>
				<stop  offset="1" style="stop-color:#35A8E0"/>
			</linearGradient>
			<path style="fill:url(#SVGID_00000166652324581209502490000004228764355608505014_);" d="M257,98l3.2-2c0.2-0.1,0.4-0.1,0.6,0
				l3.2,2c3.5,2.2,8,2.2,11.6,0l3.2-2c0.2-0.1,0.4-0.1,0.6,0l3.2,2c2.5,1.6,5.5,2,8.3,1.4c-0.3,0.4-0.6,0.8-0.9,1.2
				c-2.7,0.4-5.5-0.2-7.9-1.7l-2.6-1.6c-0.2-0.1-0.4-0.1-0.6,0l-2.6,1.7c-3.9,2.4-8.8,2.4-12.7,0l-2.6-1.7c-0.2-0.1-0.4-0.1-0.6,0
				l-2.6,1.7c-1.9,1.2-4.1,1.8-6.3,1.8c-0.3-0.3-0.5-0.7-0.8-1C252.8,99.8,255,99.2,257,98z"/>
			
				<linearGradient id="SVGID_00000116224516296761657790000000987963885750390461_" gradientUnits="userSpaceOnUse" x1="3600.9341" y1="64.2544" x2="3591.4153" y2="99.8739" gradientTransform="matrix(-1 0 0 1 3860.5493 0)">
				<stop  offset="0" style="stop-color:#00815B"/>
				<stop  offset="0.136" style="stop-color:#038362"/>
				<stop  offset="0.3367" style="stop-color:#0B8976"/>
				<stop  offset="0.5774" style="stop-color:#189296"/>
				<stop  offset="0.8469" style="stop-color:#2AA0C3"/>
				<stop  offset="1" style="stop-color:#35A8E0"/>
			</linearGradient>
			<path style="fill:url(#SVGID_00000116224516296761657790000000987963885750390461_);" d="M260.5,101.9c0.3-0.2,0.7-0.2,1,0
				l2.8,1.8c3.6,2.3,8.2,2.3,11.8,0l2.8-1.8c0.3-0.2,0.7-0.2,1,0l2.8,1.8c0.8,0.5,1.6,0.8,2.4,1.1c-0.2,0.1-0.3,0.2-0.5,0.3
				c-0.8-0.3-1.5-0.6-2.2-1.1l-2.5-1.6c-0.3-0.2-0.7-0.2-1,0l-2.5,1.6c-3.8,2.4-8.6,2.4-12.4,0l-2.5-1.6c-0.3-0.2-0.7-0.2-1,0
				l-2.5,1.6c-0.6,0.4-1.2,0.7-1.8,0.9c-0.2-0.1-0.3-0.2-0.5-0.3c0.7-0.3,1.4-0.6,2-1L260.5,101.9z"/>
		</g>
		<g>
			<path class="st0" d="M318.1,113.1l-4.9-1.6l-1.8,2.1l-3.1-1l9.4-11.3l2.7,0.9l1,14.6l-3.1-1L318.1,113.1z M318,110.5l-0.2-4.9
				l-3,3.8L318,110.5z"/>
			<path class="st0" d="M332.3,108.6l2.9-0.3l0.1,1.1c0.8-1.2,1.8-1.5,2.7-1.6c0.8-0.1,1.8,0,2.7,0.7c0.9,0.8,1.1,1.8,1.2,2.6
				l0.5,5.7l-2.9,0.3l-0.4-4.6c-0.1-0.6-0.1-1.3-0.7-1.8c-0.2-0.2-0.6-0.4-1.2-0.3c-0.6,0.1-1,0.3-1.2,0.6c-0.4,0.5-0.5,1.2-0.4,1.8
				l0.4,4.6l-2.9,0.3L332.3,108.6z M340.4,104.4c-0.1,0.4-0.4,1-0.7,1.3c-0.3,0.4-0.8,0.7-1.4,0.7c-0.2,0-0.5,0-1.2-0.2l-0.7-0.2
				c-0.5-0.1-0.8-0.2-1-0.2c-0.4,0-0.7,0.3-0.8,0.8l-1.4-0.8c0.1-0.4,0.3-1,0.6-1.3c0.3-0.5,0.8-0.7,1.4-0.7c0.4,0,0.9,0,1.3,0.1
				l0.7,0.2c0.8,0.2,1,0.2,1.1,0.2c0.5,0,0.7-0.6,0.7-0.8L340.4,104.4z"/>
			<path class="st0" d="M361.7,108.3c-0.4,1.1-1.3,2.3-2.9,3.1c-1.6,0.8-3.1,0.9-4.2,0.5c-1.2-0.4-2.2-1.3-2.8-2.4
				c-0.5-1-0.7-2.4-0.3-3.6c0.4-1.1,1.3-2.3,2.9-3.1c1.6-0.8,3.1-0.9,4.2-0.5c1.2,0.4,2.2,1.3,2.8,2.4
				C361.9,105.7,362.1,107,361.7,108.3z M354.4,106.3c-0.2,0.6-0.1,1.2,0.2,1.8c0.4,0.7,0.9,1.1,1.4,1.2c0.5,0.2,1.1,0.2,1.8-0.2
				c0.6-0.3,1-0.7,1.1-1.3c0.2-0.6,0.1-1.2-0.2-1.8c-0.3-0.7-0.8-1-1.4-1.2c-0.6-0.2-1.2-0.1-1.8,0.2
				C355,105.3,354.6,105.7,354.4,106.3z"/>
			<path class="st0" d="M371.2,92.8c-0.5,0.1-1.1,0.4-1.5,0.8c-0.2,0.2-0.4,0.5-0.4,0.8c0,0.1,0.1,0.3,0.2,0.4
				c0.2,0.1,0.3,0.1,0.5,0.1c0.2-0.1,0.5-0.2,0.8-0.4l0.7-0.4c0.5-0.3,1-0.5,1.6-0.6c0.7-0.1,1.2,0.2,1.8,0.7
				c0.9,0.8,1.1,1.7,1.1,2.3c0.1,1.3-0.6,2.2-1.2,2.9c-0.8,0.9-1.9,1.7-3.5,1.9l-0.6-2.3c0.4,0,0.9-0.1,1.2-0.3
				c0.4-0.2,0.8-0.4,1-0.7c0.1-0.1,0.4-0.5,0.5-0.8c0-0.2-0.1-0.5-0.2-0.6c-0.1-0.1-0.3-0.2-0.6-0.1c-0.2,0.1-0.5,0.2-0.8,0.4
				l-0.7,0.4c-0.5,0.3-1.1,0.5-1.6,0.5c-0.6,0-1.1-0.2-1.7-0.6c-0.6-0.6-0.9-1.3-0.9-2.1c0-1.1,0.6-2,1.2-2.6c0.9-1,1.8-1.4,2.6-1.7
				L371.2,92.8z"/>
		</g>
	</g>
</g>
</svg>
