<?xml version="1.0" encoding="UTF-8"?> <svg xmlns="http://www.w3.org/2000/svg" id="Layer_1" data-name="Layer 1" viewBox="0 0 199.19 45.78"><defs><style> .cls-1 { fill: #231f20; } </style></defs><path class="cls-1" d="M189.95,4.62c0-.64.12-1.24.37-1.79.24-.56.57-1.05.99-1.46.42-.42.91-.75,1.47-.99.56-.24,1.16-.37,1.79-.37s1.24.12,1.79.37c.56.24,1.05.57,1.47.99.42.42.75.91.99,1.46.24.56.37,1.16.37,1.79s-.12,1.24-.37,1.79c-.24.56-.58,1.05-.99,1.47-.42.42-.91.75-1.47.99-.56.24-1.16.37-1.79.37s-1.24-.12-1.79-.37c-.56-.24-1.05-.57-1.47-.99-.42-.42-.75-.91-.99-1.47-.24-.56-.37-1.16-.37-1.79ZM190.77,4.62c0,.52.1,1.01.3,1.48.2.46.47.87.81,1.21.34.34.75.61,1.21.81.46.2.96.3,1.48.3s1.01-.1,1.48-.3c.46-.2.87-.47,1.21-.81.34-.34.61-.75.81-1.21.2-.46.3-.96.3-1.48s-.1-1.01-.3-1.48c-.2-.46-.47-.87-.81-1.21-.34-.34-.75-.61-1.21-.81s-.96-.3-1.48-.3-1.01.1-1.48.3c-.46.2-.87.47-1.21.81-.34.34-.61.75-.81,1.21-.2.46-.3.96-.3,1.48ZM192.79,1.95h2.04c.64,0,1.11.14,1.41.41.3.27.45.67.45,1.18,0,.46-.12.81-.36,1.04s-.54.37-.9.41l1.37,2.23h-1.02l-1.32-2.16h-.71v2.16h-.97V1.95ZM193.76,4.25h.71c.15,0,.3,0,.45-.02.15-.01.28-.04.4-.09s.22-.12.29-.22.11-.24.11-.41-.04-.31-.11-.41-.17-.17-.29-.22-.25-.08-.4-.09c-.15,0-.3-.01-.45-.01h-.71v1.48Z"></path><g><g><path class="cls-1" d="M8.44,1.2h-1.24C3.79,1.2,1.93,2.33.59,7.02H.15V.72h21.58v6.3h-.45c-1.34-4.68-3.2-5.82-6.61-5.82h-1.24v23.54h3.17v.48H5.27v-.48h3.17V1.2Z"></path><path class="cls-1" d="M36.1.17c6.37,0,12.87,4.92,12.87,12.77,0,6.88-6.02,12.8-12.87,12.8s-12.91-5.61-12.91-12.7C23.19,5.26,30.18.17,36.1.17ZM36.1,25.25c6.78,0,7.26-5.37,7.26-12.53,0-6.44-.34-12.08-7.26-12.08-6.44,0-7.3,5.16-7.3,12.39,0,9.57,2.13,12.22,7.3,12.22Z"></path><path class="cls-1" d="M50.09.72h8.84l5.95,17.14h.07L71.01.72h8.6v.48h-3.17v23.54h3.17v.48h-11.29v-.48h3.13V1.2h-.07l-8.47,24.02h-.55L53.87,1.2h-.07v23.54h3.17v.48h-6.88v-.48h3.17V1.2h-3.17v-.48Z"></path><path class="cls-1" d="M89.82,24.74h3.17v.48h-11.32v-.48h3.17V1.2h-3.17v-.48h3.17c1.17,0,2.34-.03,3.51-.07,1.17,0,2.34-.03,3.51-.03,4.13,0,10.19,1.14,10.19,6.44,0,3.58-3.44,6.5-10.81,6.5h-1.41v11.18ZM89.82,13.07h1.07c3.92,0,5.54-1.58,5.54-5.82,0-3.99-1.27-6.16-5.27-6.16-.48,0-.96.07-1.34.1v11.87Z"></path><path class="cls-1" d="M102.23.72h11.32v.48h-3.17v11.01h.28l10.53-11.01h-3.48v-.48h6.88v.48h-2.75l-7.67,8.05,11.91,15.49h2.13v.48h-11.49v-.48h3.1l-9.15-12.04h-.28v12.04h3.17v.48h-11.32v-.48h3.17V1.2h-3.17v-.48Z"></path><path class="cls-1" d="M129.5.72h11.32v.48h-3.17v23.54h3.17v.48h-11.32v-.48h3.17V1.2h-3.17v-.48Z"></path><path class="cls-1" d="M142.87.72h8.12l11.46,16.38h.07V1.2h-3.17v-.48h6.88v.48h-3.17v24.02h-.93l-15.49-22.06h-.07v21.58h3.17v.48h-6.88v-.48h3.17V1.2h-3.17v-.48Z"></path><path class="cls-1" d="M168.13,17.58h.52c.21,1.1.89,3.75,2.79,5.61,2.1,2.06,3.96,2.06,5.33,2.06,4.82,0,6.06-3.54,6.06-5.33,0-6.85-14.18-2.79-14.18-12.66,0-3.65,3.44-7.09,8.29-7.09,3.03,0,4.47,1.27,5.57,1.27.62,0,.76-.17.96-.72h.55v6.54h-.45c-1.07-3.17-2.2-6.61-6.68-6.61-3.65,0-5.68,2.27-5.68,4.3,0,6.37,14.76,3.3,14.76,12.42,0,4.51-3.89,8.36-9.5,8.36-2.82,0-5.82-1.31-6.75-1.31-.62,0-.83.17-1.07.79h-.55v-7.64Z"></path></g><g><path class="cls-1" d="M14.22,33.2h-.31c-.68-2.09-1.74-4.83-5.12-4.83-4.55,0-4.97,3.57-4.97,8.49,0,6.48,1.45,8.28,4.97,8.28,2.79,0,4.62-2.49,5.19-5h.38v4.97h-.38c-.16-.38-.33-.49-.77-.49-.73,0-2.44.84-4.43.84-4.6,0-8.78-3.82-8.78-8.66,0-5.3,4.76-8.78,8.78-8.78,1.95,0,3.5.87,4.34.87.42,0,.63-.07.73-.49h.38v4.79Z"></path><path class="cls-1" d="M24.88,28.04c4.34,0,8.78,3.36,8.78,8.71,0,4.69-4.11,8.73-8.78,8.73s-8.8-3.82-8.8-8.66c0-5.3,4.76-8.78,8.8-8.78ZM24.88,45.14c4.62,0,4.95-3.66,4.95-8.54,0-4.39-.23-8.24-4.95-8.24-4.39,0-4.97,3.52-4.97,8.45,0,6.52,1.45,8.33,4.97,8.33Z"></path><path class="cls-1" d="M34.41,28.41h5.54l7.81,11.17h.05v-10.84h-2.16v-.33h4.69v.33h-2.16v16.38h-.63l-10.56-15.04h-.05v14.71h2.16v.33h-4.69v-.33h2.16v-16.05h-2.16v-.33Z"></path><path class="cls-1" d="M51.64,39.91h.35c.14.75.61,2.56,1.9,3.82,1.43,1.41,2.7,1.41,3.64,1.41,3.29,0,4.13-2.42,4.13-3.64,0-4.67-9.67-1.9-9.67-8.64,0-2.49,2.35-4.83,5.66-4.83,2.06,0,3.05.87,3.8.87.42,0,.52-.12.66-.49h.38v4.46h-.31c-.73-2.16-1.5-4.51-4.55-4.51-2.49,0-3.87,1.55-3.87,2.93,0,4.34,10.07,2.25,10.07,8.47,0,3.07-2.65,5.7-6.48,5.7-1.92,0-3.97-.89-4.6-.89-.42,0-.56.12-.73.54h-.38v-5.21Z"></path><path class="cls-1" d="M65.04,28.41h14.03v4.01h-.31c-.33-1.03-1.34-3.68-4.43-3.68h-3.73v7.25h1.31c2.3,0,3.1-1.38,3.54-3.5h.31v7.3h-.31c-.42-1.83-1.13-3.47-3.28-3.47h-1.57v8.47h3.85c2.89,0,4.65-2.09,5.28-4.81h.31v5.14h-14.99v-.33h2.16v-16.05h-2.16v-.33Z"></path><path class="cls-1" d="M83.7,28.74h-2.16v-.33h3.54c.66,0,1.29-.02,1.95-.05.66,0,1.31-.02,1.95-.02,2.46,0,5.75.89,5.75,4.01,0,2.51-2.51,3.47-4.62,3.64v.12c3.05.54,4.88.87,5.14,4.25.31,3.92.28,4.58,1.38,4.58.63,0,1.01-.47,1.31-.77l.23.21c-.63.63-1.03,1.1-2.75,1.1-3.45,0-3.57-2.49-3.64-4.13-.12-2.56-.23-5.02-3.14-5.02h-1.55v8.47h2.16v.33h-7.72v-.33h2.16v-16.05ZM87.11,35.99h.96c2.82,0,3.05-1.67,3.05-3.38,0-2.75-.63-3.94-2.98-3.94-.35,0-.68.05-1.03.07v7.25Z"></path><path class="cls-1" d="M95.44,28.41h7.86v.33h-2.25l4.86,12.72,4.95-12.72h-2.11v-.33h4.48v.33h-2.02l-6.62,17.04h-.68l-6.48-17.04h-1.99v-.33Z"></path><path class="cls-1" d="M108.98,44.79h1.99l6.99-17.04h.63l7.39,17.04h2.02v.33h-7.88v-.33h2.18l-2.72-6.29h-5.63l-2.6,6.29h2.09v.33h-4.46v-.33ZM116.7,31.77l-2.63,6.41h5.4l-2.77-6.41Z"></path><path class="cls-1" d="M132.52,28.74h-.84c-2.32,0-3.59.77-4.51,3.97h-.3v-4.29h14.71v4.29h-.3c-.92-3.19-2.18-3.97-4.51-3.97h-.84v16.05h2.16v.33h-7.72v-.33h2.16v-16.05Z"></path><path class="cls-1" d="M143.05,28.41h7.72v.33h-2.16v16.05h2.16v.33h-7.72v-.33h2.16v-16.05h-2.16v-.33Z"></path><path class="cls-1" d="M160.35,28.04c4.34,0,8.78,3.36,8.78,8.71,0,4.69-4.11,8.73-8.78,8.73s-8.8-3.82-8.8-8.66c0-5.3,4.76-8.78,8.8-8.78ZM160.35,45.14c4.62,0,4.95-3.66,4.95-8.54,0-4.39-.23-8.24-4.95-8.24-4.39,0-4.97,3.52-4.97,8.45,0,6.52,1.45,8.33,4.97,8.33Z"></path><path class="cls-1" d="M169.89,28.41h5.54l7.81,11.17h.05v-10.84h-2.16v-.33h4.69v.33h-2.16v16.38h-.63l-10.56-15.04h-.05v14.71h2.16v.33h-4.69v-.33h2.16v-16.05h-2.16v-.33Z"></path></g></g></svg> 